<svg xmlns="http://www.w3.org/2000/svg" xmlns:xlink="http://www.w3.org/1999/xlink" width="620" height="345.65"><rect width="620" height="345.65" rx="0" ry="0" class="a"/><svg height="325.65" viewBox="0 0 60 32.565" width="600" x="10" xmlns="http://www.w3.org/2000/svg" xmlns:xlink="http://www.w3.org/1999/xlink" y="10"><style>@keyframes f{0%{transform:translateX(0)}.1%{transform:translateX(-60px)}14.8%{transform:translateX(-120px)}16%{transform:translateX(-180px)}17.1%{transform:translateX(-240px)}18.2%{transform:translateX(-300px)}19.4%{transform:translateX(-360px)}20.5%{transform:translateX(-420px)}21.6%{transform:translateX(-480px)}22.7%{transform:translateX(-540px)}26.1%{transform:translateX(-600px)}27.2%{transform:translateX(-660px)}28.4%{transform:translateX(-720px)}29.5%{transform:translateX(-780px)}30.6%{transform:translateX(-840px)}36.9%{transform:translateX(-960px)}39.2%{transform:translateX(-1080px)}51.8%{transform:translateX(-1140px)}54%{transform:translateX(-1200px)}55.2%{transform:translateX(-1260px)}56.3%{transform:translateX(-1320px)}57.4%{transform:translateX(-1380px)}58.5%{transform:translateX(-1440px)}59.7%{transform:translateX(-1500px)}60.8%{transform:translateX(-1560px)}61.9%{transform:translateX(-1620px)}63%{transform:translateX(-1680px)}65.3%{transform:translateX(-1740px)}66.4%{transform:translateX(-1800px)}72.7%{transform:translateX(-1920px)}75%{transform:translateX(-2040px)}to{transform:translateX(-2100px)}}.a{fill:#1e1e2e}.c{fill:#cdd6f4;white-space:pre}</style><g font-family="Monaco,Consolas,Menlo,'Bitstream Vera Sans Mono','Powerline Symbols',monospace" font-size="1.67"><defs><symbol id="1"><text font-size="1.67" y="1.67" class="c">▶</text></symbol><symbol id="2"><text font-size="1.67" y="1.67" class="c">▶</text><text font-size="1.67" x="2.004" y="1.67" class="c">cat</text></symbol><symbol id="3"><text font-size="1.67" y="1.67" class="c">▶</text><text font-size="1.67" x="2.004" y="1.67" class="c">cat</text><text font-size="1.67" x="6.012" y="1.67" class="c">bands.txt</text></symbol><symbol id="4"><text font-size="1.67" y="1.67" class="c">Motörhead</text></symbol><symbol id="5"><text font-size="1.67" y="1.67" class="c">ACDC</text></symbol><symbol id="6"><text font-size="1.67" y="1.67" class="c">Sepultura</text></symbol><symbol id="7"><text font-size="1.67" y="1.67" class="c">Carcass</text></symbol><symbol id="8"><text font-size="1.67" y="1.67" class="c">Opeth</text></symbol><symbol id="9"><text font-size="1.67" y="1.67" class="c">▶</text><text font-size="1.67" x="2.004" y="1.67" class="c">sort</text><text font-size="1.67" x="7.014" y="1.67" class="c">bands.txt</text></symbol><symbol id="a"><path fill="transparent" d="M0 0h60v16H0z"/></symbol><symbol id="b"><path fill="#f5e0dc" d="M0 0h1.102v2.171H0z"/></symbol></defs><path class="a" d="M0 0h60v32.565H0z"/><g style="animation-duration:8.007387999999999s;animation-iteration-count:infinite;animation-name:f;animation-timing-function:steps(1,end)"><svg width="2160"><svg><use xlink:href="#a"/><use xlink:href="#b" x="-.004"/></svg><svg x="60"><use xlink:href="#a"/><use xlink:href="#b" x="1.996"/><use xlink:href="#1"/></svg><svg x="120"><use xlink:href="#a"/><use xlink:href="#b" x="2.996"/><text font-size="1.67" y="1.67" class="c">▶</text><text font-size="1.67" x="2.004" y="1.67" class="c">c</text></svg><svg x="180"><use xlink:href="#a"/><use xlink:href="#b" x="3.996"/><text font-size="1.67" y="1.67" class="c">▶</text><text font-size="1.67" x="2.004" y="1.67" class="c">ca</text></svg><svg x="240"><use xlink:href="#a"/><use xlink:href="#b" x="4.996"/><use xlink:href="#2"/></svg><svg x="300"><use xlink:href="#a"/><use xlink:href="#b" x="5.996"/><use xlink:href="#2"/></svg><svg x="360"><use xlink:href="#a"/><use xlink:href="#b" x="6.996"/><text font-size="1.67" y="1.67" class="c">▶</text><text font-size="1.67" x="2.004" y="1.67" class="c">cat</text><text font-size="1.67" x="6.012" y="1.67" class="c">b</text></svg><svg x="420"><use xlink:href="#a"/><use xlink:href="#b" x="7.996"/><text font-size="1.67" y="1.67" class="c">▶</text><text font-size="1.67" x="2.004" y="1.67" class="c">cat</text><text font-size="1.67" x="6.012" y="1.67" class="c">ba</text></svg><svg x="480"><use xlink:href="#a"/><use xlink:href="#b" x="8.996"/><text font-size="1.67" y="1.67" class="c">▶</text><text font-size="1.67" x="2.004" y="1.67" class="c">cat</text><text font-size="1.67" x="6.012" y="1.67" class="c">ban</text></svg><svg x="540"><use xlink:href="#a"/><use xlink:href="#b" x="9.996"/><text font-size="1.67" y="1.67" class="c">▶</text><text font-size="1.67" x="2.004" y="1.67" class="c">cat</text><text font-size="1.67" x="6.012" y="1.67" class="c">band</text></svg><svg x="600"><use xlink:href="#a"/><use xlink:href="#b" x="10.996"/><text font-size="1.67" y="1.67" class="c">▶</text><text font-size="1.67" x="2.004" y="1.67" class="c">cat</text><text font-size="1.67" x="6.012" y="1.67" class="c">bands</text></svg><svg x="660"><use xlink:href="#a"/><use xlink:href="#b" x="11.996"/><text font-size="1.67" y="1.67" class="c">▶</text><text font-size="1.67" x="2.004" y="1.67" class="c">cat</text><text font-size="1.67" x="6.012" y="1.67" class="c">bands.</text></svg><svg x="720"><use xlink:href="#a"/><use xlink:href="#b" x="12.996"/><text font-size="1.67" y="1.67" class="c">▶</text><text font-size="1.67" x="2.004" y="1.67" class="c">cat</text><text font-size="1.67" x="6.012" y="1.67" class="c">bands.t</text></svg><svg x="780"><use xlink:href="#a"/><use xlink:href="#b" x="13.996"/><text font-size="1.67" y="1.67" class="c">▶</text><text font-size="1.67" x="2.004" y="1.67" class="c">cat</text><text font-size="1.67" x="6.012" y="1.67" class="c">bands.tx</text></svg><svg x="840"><use xlink:href="#a"/><use xlink:href="#b" x="14.996"/><use xlink:href="#3"/></svg><svg x="900"><use xlink:href="#a"/><use xlink:href="#b" x="-.004" y="2.146"/><use xlink:href="#3"/></svg><svg x="960"><use xlink:href="#a"/><use xlink:href="#b" x="-.004" y="13.001"/><use xlink:href="#3"/><use xlink:href="#4" y="2.171"/><use xlink:href="#5" y="4.342"/><use xlink:href="#6" y="6.513"/><use xlink:href="#7" y="8.684"/><use xlink:href="#8" y="10.855"/></svg><svg x="1020"><use xlink:href="#a"/><use xlink:href="#b" x="-.004" y="15.172"/><use xlink:href="#3"/><use xlink:href="#4" y="2.171"/><use xlink:href="#5" y="4.342"/><use xlink:href="#6" y="6.513"/><use xlink:href="#7" y="8.684"/><use xlink:href="#8" y="10.855"/></svg><svg x="1080"><use xlink:href="#a"/><use xlink:href="#b" x="1.996" y="15.172"/><use xlink:href="#3"/><use xlink:href="#4" y="2.171"/><use xlink:href="#5" y="4.342"/><use xlink:href="#6" y="6.513"/><use xlink:href="#7" y="8.684"/><use xlink:href="#8" y="10.855"/><use xlink:href="#1" y="15.197"/></svg><svg x="1140"><use xlink:href="#a"/><use xlink:href="#b" x="2.996" y="15.172"/><use xlink:href="#3"/><use xlink:href="#4" y="2.171"/><use xlink:href="#5" y="4.342"/><use xlink:href="#6" y="6.513"/><use xlink:href="#7" y="8.684"/><use xlink:href="#8" y="10.855"/><text font-size="1.67" y="16.867" class="c">▶</text><text font-size="1.67" x="2.004" y="16.867" class="c">s</text></svg><svg x="1200"><use xlink:href="#a"/><use xlink:href="#b" x="3.996" y="15.172"/><use xlink:href="#3"/><use xlink:href="#4" y="2.171"/><use xlink:href="#5" y="4.342"/><use xlink:href="#6" y="6.513"/><use xlink:href="#7" y="8.684"/><use xlink:href="#8" y="10.855"/><text font-size="1.67" y="16.867" class="c">▶</text><text font-size="1.67" x="2.004" y="16.867" class="c">so</text></svg><svg x="1260"><use xlink:href="#a"/><use xlink:href="#b" x="4.996" y="15.172"/><use xlink:href="#3"/><use xlink:href="#4" y="2.171"/><use xlink:href="#5" y="4.342"/><use xlink:href="#6" y="6.513"/><use xlink:href="#7" y="8.684"/><use xlink:href="#8" y="10.855"/><text font-size="1.67" y="16.867" class="c">▶</text><text font-size="1.67" x="2.004" y="16.867" class="c">sor</text></svg><svg x="1320"><use xlink:href="#a"/><use xlink:href="#b" x="5.996" y="15.172"/><use xlink:href="#3"/><use xlink:href="#4" y="2.171"/><use xlink:href="#5" y="4.342"/><use xlink:href="#6" y="6.513"/><use xlink:href="#7" y="8.684"/><use xlink:href="#8" y="10.855"/><text font-size="1.67" y="16.867" class="c">▶</text><text font-size="1.67" x="2.004" y="16.867" class="c">sort</text></svg><svg x="1380"><use xlink:href="#a"/><use xlink:href="#b" x="7.996" y="15.172"/><use xlink:href="#3"/><use xlink:href="#4" y="2.171"/><use xlink:href="#5" y="4.342"/><use xlink:href="#6" y="6.513"/><use xlink:href="#7" y="8.684"/><use xlink:href="#8" y="10.855"/><text font-size="1.67" y="16.867" class="c">▶</text><text font-size="1.67" x="2.004" y="16.867" class="c">sort</text><text font-size="1.67" x="7.014" y="16.867" class="c">b</text></svg><svg x="1440"><use xlink:href="#a"/><use xlink:href="#b" x="8.996" y="15.172"/><use xlink:href="#3"/><use xlink:href="#4" y="2.171"/><use xlink:href="#5" y="4.342"/><use xlink:href="#6" y="6.513"/><use xlink:href="#7" y="8.684"/><use xlink:href="#8" y="10.855"/><text font-size="1.67" y="16.867" class="c">▶</text><text font-size="1.67" x="2.004" y="16.867" class="c">sort</text><text font-size="1.67" x="7.014" y="16.867" class="c">ba</text></svg><svg x="1500"><use xlink:href="#a"/><use xlink:href="#b" x="9.996" y="15.172"/><use xlink:href="#3"/><use xlink:href="#4" y="2.171"/><use xlink:href="#5" y="4.342"/><use xlink:href="#6" y="6.513"/><use xlink:href="#7" y="8.684"/><use xlink:href="#8" y="10.855"/><text font-size="1.67" y="16.867" class="c">▶</text><text font-size="1.67" x="2.004" y="16.867" class="c">sort</text><text font-size="1.67" x="7.014" y="16.867" class="c">ban</text></svg><svg x="1560"><use xlink:href="#a"/><use xlink:href="#b" x="10.996" y="15.172"/><use xlink:href="#3"/><use xlink:href="#4" y="2.171"/><use xlink:href="#5" y="4.342"/><use xlink:href="#6" y="6.513"/><use xlink:href="#7" y="8.684"/><use xlink:href="#8" y="10.855"/><text font-size="1.67" y="16.867" class="c">▶</text><text font-size="1.67" x="2.004" y="16.867" class="c">sort</text><text font-size="1.67" x="7.014" y="16.867" class="c">band</text></svg><svg x="1620"><use xlink:href="#a"/><use xlink:href="#b" x="11.996" y="15.172"/><use xlink:href="#3"/><use xlink:href="#4" y="2.171"/><use xlink:href="#5" y="4.342"/><use xlink:href="#6" y="6.513"/><use xlink:href="#7" y="8.684"/><use xlink:href="#8" y="10.855"/><text font-size="1.67" y="16.867" class="c">▶</text><text font-size="1.67" x="2.004" y="16.867" class="c">sort</text><text font-size="1.67" x="7.014" y="16.867" class="c">bands</text></svg><svg x="1680"><use xlink:href="#a"/><use xlink:href="#b" x="13.996" y="15.172"/><use xlink:href="#3"/><use xlink:href="#4" y="2.171"/><use xlink:href="#5" y="4.342"/><use xlink:href="#6" y="6.513"/><use xlink:href="#7" y="8.684"/><use xlink:href="#8" y="10.855"/><text font-size="1.67" y="16.867" class="c">▶</text><text font-size="1.67" x="2.004" y="16.867" class="c">sort</text><text font-size="1.67" x="7.014" y="16.867" class="c">bands.t</text></svg><svg x="1740"><use xlink:href="#a"/><use xlink:href="#b" x="14.996" y="15.172"/><use xlink:href="#3"/><use xlink:href="#4" y="2.171"/><use xlink:href="#5" y="4.342"/><use xlink:href="#6" y="6.513"/><use xlink:href="#7" y="8.684"/><use xlink:href="#8" y="10.855"/><text font-size="1.67" y="16.867" class="c">▶</text><text font-size="1.67" x="2.004" y="16.867" class="c">sort</text><text font-size="1.67" x="7.014" y="16.867" class="c">bands.tx</text></svg><svg x="1800"><use xlink:href="#a"/><use xlink:href="#b" x="15.996" y="15.172"/><use xlink:href="#3"/><use xlink:href="#4" y="2.171"/><use xlink:href="#5" y="4.342"/><use xlink:href="#6" y="6.513"/><use xlink:href="#7" y="8.684"/><use xlink:href="#8" y="10.855"/><use xlink:href="#9" y="15.197"/></svg><svg x="1860"><use xlink:href="#a"/><use xlink:href="#b" x="-.004" y="17.343"/><use xlink:href="#3"/><use xlink:href="#4" y="2.171"/><use xlink:href="#5" y="4.342"/><use xlink:href="#6" y="6.513"/><use xlink:href="#7" y="8.684"/><use xlink:href="#8" y="10.855"/><use xlink:href="#9" y="15.197"/></svg><svg x="1920"><use xlink:href="#a"/><use xlink:href="#b" x="-.004" y="28.198"/><use xlink:href="#3"/><use xlink:href="#4" y="2.171"/><use xlink:href="#5" y="4.342"/><use xlink:href="#6" y="6.513"/><use xlink:href="#7" y="8.684"/><use xlink:href="#8" y="10.855"/><use xlink:href="#9" y="15.197"/><use xlink:href="#5" y="17.368"/><use xlink:href="#7" y="19.539"/><use xlink:href="#4" y="21.71"/><use xlink:href="#8" y="23.881"/><use xlink:href="#6" y="26.052"/></svg><svg x="1980"><use xlink:href="#a"/><use xlink:href="#b" x="-.004" y="30.369"/><use xlink:href="#3"/><use xlink:href="#4" y="2.171"/><use xlink:href="#5" y="4.342"/><use xlink:href="#6" y="6.513"/><use xlink:href="#7" y="8.684"/><use xlink:href="#8" y="10.855"/><use xlink:href="#9" y="15.197"/><use xlink:href="#5" y="17.368"/><use xlink:href="#7" y="19.539"/><use xlink:href="#4" y="21.71"/><use xlink:href="#8" y="23.881"/><use xlink:href="#6" y="26.052"/></svg><svg x="2040"><use xlink:href="#a"/><use xlink:href="#b" x="1.996" y="30.369"/><use xlink:href="#3"/><use xlink:href="#4" y="2.171"/><use xlink:href="#5" y="4.342"/><use xlink:href="#6" y="6.513"/><use xlink:href="#7" y="8.684"/><use xlink:href="#8" y="10.855"/><use xlink:href="#9" y="15.197"/><use xlink:href="#5" y="17.368"/><use xlink:href="#7" y="19.539"/><use xlink:href="#4" y="21.71"/><use xlink:href="#8" y="23.881"/><use xlink:href="#6" y="26.052"/><use xlink:href="#1" y="30.394"/></svg><svg x="2100"><use xlink:href="#a"/><use xlink:href="#b" x="-.004" y="32.54"/><use xlink:href="#3"/><use xlink:href="#4" y="2.171"/><use xlink:href="#5" y="4.342"/><use xlink:href="#6" y="6.513"/><use xlink:href="#7" y="8.684"/><use xlink:href="#8" y="10.855"/><use xlink:href="#9" y="15.197"/><use xlink:href="#5" y="17.368"/><use xlink:href="#7" y="19.539"/><use xlink:href="#4" y="21.71"/><use xlink:href="#8" y="23.881"/><use xlink:href="#6" y="26.052"/><use xlink:href="#1" y="30.394"/></svg></svg></g></g></svg></svg>