<svg xmlns="http://www.w3.org/2000/svg" xmlns:xlink="http://www.w3.org/1999/xlink" width="620" height="345.65"><rect width="620" height="345.65" rx="0" ry="0" class="a"/><svg height="325.65" viewBox="0 0 60 32.565" width="600" x="10" xmlns="http://www.w3.org/2000/svg" xmlns:xlink="http://www.w3.org/1999/xlink" y="10"><style>@keyframes f{0%{transform:translateX(0)}.1%{transform:translateX(-60px)}11%{transform:translateX(-120px)}12.9%{transform:translateX(-180px)}13.9%{transform:translateX(-240px)}14.9%{transform:translateX(-300px)}15.9%{transform:translateX(-360px)}16.9%{transform:translateX(-420px)}17.9%{transform:translateX(-480px)}18.8%{transform:translateX(-540px)}19.8%{transform:translateX(-600px)}20.8%{transform:translateX(-660px)}22.8%{transform:translateX(-720px)}23.8%{transform:translateX(-780px)}24.7%{transform:translateX(-840px)}25.7%{transform:translateX(-900px)}26.7%{transform:translateX(-960px)}27.7%{transform:translateX(-1020px)}28.7%{transform:translateX(-1080px)}34.1%{transform:translateX(-1140px)}34.2%{transform:translateX(-1320px)}47.1%{transform:translateX(-1380px)}48.1%{transform:translateX(-1440px)}49.1%{transform:translateX(-1500px)}50.1%{transform:translateX(-1560px)}51%{transform:translateX(-1620px)}52%{transform:translateX(-1680px)}53%{transform:translateX(-1740px)}54%{transform:translateX(-1800px)}56.9%{transform:translateX(-1860px)}57.9%{transform:translateX(-1920px)}58.9%{transform:translateX(-1980px)}59.9%{transform:translateX(-2040px)}60.9%{transform:translateX(-2100px)}61.9%{transform:translateX(-2160px)}62.8%{transform:translateX(-2220px)}63.8%{transform:translateX(-2280px)}64.8%{transform:translateX(-2340px)}67.8%{transform:translateX(-2400px)}68.7%{transform:translateX(-2460px)}69.7%{transform:translateX(-2520px)}70.7%{transform:translateX(-2580px)}76.2%{transform:translateX(-2700px)}78.2%{transform:translateX(-2820px)}to{transform:translateX(-2880px)}}.a{fill:#1e1e2e}.c{fill:#cdd6f4;white-space:pre}</style><g font-family="Monaco,Consolas,Menlo,'Bitstream Vera Sans Mono','Powerline Symbols',monospace" font-size="1.67"><defs><symbol id="1"><text font-size="1.67" y="1.67" class="c">▶</text></symbol><symbol id="2"><text font-size="1.67" y="1.67" class="c">▶</text><text font-size="1.67" x="2.004" y="1.67" class="c">cat</text></symbol><symbol id="3"><text font-size="1.67" y="1.67" class="c">▶</text><text font-size="1.67" x="2.004" y="1.67" class="c">cat</text><text font-size="1.67" x="6.012" y="1.67" class="c">breakfast.txt</text></symbol><symbol id="4"><text font-size="1.67" y="1.67" class="c">Cornflakes</text></symbol><symbol id="5"><text font-size="1.67" y="1.67" class="c">Sultana</text><text font-size="1.67" x="8.016" y="1.67" class="c">Bran</text></symbol><symbol id="6"><text font-size="1.67" y="1.67" class="c">Weetabix</text></symbol><symbol id="7"><text font-size="1.67" y="1.67" class="c">Shredded</text><text font-size="1.67" x="9.018" y="1.67" class="c">Wheat</text></symbol><symbol id="8"><text font-size="1.67" y="1.67" class="c">Cherrios</text></symbol><symbol id="9"><text font-size="1.67" y="1.67" class="c">▶</text><text font-size="1.67" x="2.004" y="1.67" class="c">sort</text></symbol><symbol id="10"><text font-size="1.67" y="1.67" class="c">▶</text><text font-size="1.67" x="2.004" y="1.67" class="c">sort</text><text font-size="1.67" x="7.014" y="1.67" class="c">-u</text></symbol><symbol id="11"><text font-size="1.67" y="1.67" class="c">▶</text><text font-size="1.67" x="2.004" y="1.67" class="c">sort</text><text font-size="1.67" x="7.014" y="1.67" class="c">-u</text><text font-size="1.67" x="10.02" y="1.67" class="c">breakfast.txt</text></symbol><symbol id="a"><path fill="transparent" d="M0 0h60v16H0z"/></symbol><symbol id="b"><path fill="#f5e0dc" d="M0 0h1.102v2.171H0z"/></symbol></defs><path class="a" d="M0 0h60v32.565H0z"/><g style="animation-duration:9.183033s;animation-iteration-count:infinite;animation-name:f;animation-timing-function:steps(1,end)"><svg width="2940"><svg><use xlink:href="#a"/><use xlink:href="#b" x="-.004"/></svg><svg x="60"><use xlink:href="#a"/><use xlink:href="#b" x="1.996"/><use xlink:href="#1"/></svg><svg x="120"><use xlink:href="#a"/><use xlink:href="#b" x="2.996"/><text font-size="1.67" y="1.67" class="c">▶</text><text font-size="1.67" x="2.004" y="1.67" class="c">c</text></svg><svg x="180"><use xlink:href="#a"/><use xlink:href="#b" x="3.996"/><text font-size="1.67" y="1.67" class="c">▶</text><text font-size="1.67" x="2.004" y="1.67" class="c">ca</text></svg><svg x="240"><use xlink:href="#a"/><use xlink:href="#b" x="4.996"/><use xlink:href="#2"/></svg><svg x="300"><use xlink:href="#a"/><use xlink:href="#b" x="5.996"/><use xlink:href="#2"/></svg><svg x="360"><use xlink:href="#a"/><use xlink:href="#b" x="6.996"/><text font-size="1.67" y="1.67" class="c">▶</text><text font-size="1.67" x="2.004" y="1.67" class="c">cat</text><text font-size="1.67" x="6.012" y="1.67" class="c">b</text></svg><svg x="420"><use xlink:href="#a"/><use xlink:href="#b" x="7.996"/><text font-size="1.67" y="1.67" class="c">▶</text><text font-size="1.67" x="2.004" y="1.67" class="c">cat</text><text font-size="1.67" x="6.012" y="1.67" class="c">br</text></svg><svg x="480"><use xlink:href="#a"/><use xlink:href="#b" x="8.996"/><text font-size="1.67" y="1.67" class="c">▶</text><text font-size="1.67" x="2.004" y="1.67" class="c">cat</text><text font-size="1.67" x="6.012" y="1.67" class="c">bre</text></svg><svg x="540"><use xlink:href="#a"/><use xlink:href="#b" x="9.996"/><text font-size="1.67" y="1.67" class="c">▶</text><text font-size="1.67" x="2.004" y="1.67" class="c">cat</text><text font-size="1.67" x="6.012" y="1.67" class="c">brea</text></svg><svg x="600"><use xlink:href="#a"/><use xlink:href="#b" x="10.996"/><text font-size="1.67" y="1.67" class="c">▶</text><text font-size="1.67" x="2.004" y="1.67" class="c">cat</text><text font-size="1.67" x="6.012" y="1.67" class="c">break</text></svg><svg x="660"><use xlink:href="#a"/><use xlink:href="#b" x="11.996"/><text font-size="1.67" y="1.67" class="c">▶</text><text font-size="1.67" x="2.004" y="1.67" class="c">cat</text><text font-size="1.67" x="6.012" y="1.67" class="c">breakf</text></svg><svg x="720"><use xlink:href="#a"/><use xlink:href="#b" x="12.996"/><text font-size="1.67" y="1.67" class="c">▶</text><text font-size="1.67" x="2.004" y="1.67" class="c">cat</text><text font-size="1.67" x="6.012" y="1.67" class="c">breakfa</text></svg><svg x="780"><use xlink:href="#a"/><use xlink:href="#b" x="13.996"/><text font-size="1.67" y="1.67" class="c">▶</text><text font-size="1.67" x="2.004" y="1.67" class="c">cat</text><text font-size="1.67" x="6.012" y="1.67" class="c">breakfas</text></svg><svg x="840"><use xlink:href="#a"/><use xlink:href="#b" x="14.996"/><text font-size="1.67" y="1.67" class="c">▶</text><text font-size="1.67" x="2.004" y="1.67" class="c">cat</text><text font-size="1.67" x="6.012" y="1.67" class="c">breakfast</text></svg><svg x="900"><use xlink:href="#a"/><use xlink:href="#b" x="15.996"/><text font-size="1.67" y="1.67" class="c">▶</text><text font-size="1.67" x="2.004" y="1.67" class="c">cat</text><text font-size="1.67" x="6.012" y="1.67" class="c">breakfast.</text></svg><svg x="960"><use xlink:href="#a"/><use xlink:href="#b" x="16.996"/><text font-size="1.67" y="1.67" class="c">▶</text><text font-size="1.67" x="2.004" y="1.67" class="c">cat</text><text font-size="1.67" x="6.012" y="1.67" class="c">breakfast.t</text></svg><svg x="1020"><use xlink:href="#a"/><use xlink:href="#b" x="17.996"/><text font-size="1.67" y="1.67" class="c">▶</text><text font-size="1.67" x="2.004" y="1.67" class="c">cat</text><text font-size="1.67" x="6.012" y="1.67" class="c">breakfast.tx</text></svg><svg x="1080"><use xlink:href="#a"/><use xlink:href="#b" x="18.996"/><use xlink:href="#3"/></svg><svg x="1140"><use xlink:href="#a"/><use xlink:href="#b" x="-.004" y="2.146"/><use xlink:href="#3"/></svg><svg x="1200"><use xlink:href="#a"/><use xlink:href="#b" x="-.004" y="19.514"/><use xlink:href="#3"/><use xlink:href="#4" y="2.171"/><use xlink:href="#5" y="4.342"/><use xlink:href="#6" y="6.513"/><use xlink:href="#5" y="8.684"/><use xlink:href="#4" y="10.855"/><use xlink:href="#7" y="13.026"/><use xlink:href="#8" y="15.197"/><use xlink:href="#6" y="17.368"/></svg><svg x="1260"><use xlink:href="#a"/><use xlink:href="#b" x="-.004" y="21.685"/><use xlink:href="#3"/><use xlink:href="#4" y="2.171"/><use xlink:href="#5" y="4.342"/><use xlink:href="#6" y="6.513"/><use xlink:href="#5" y="8.684"/><use xlink:href="#4" y="10.855"/><use xlink:href="#7" y="13.026"/><use xlink:href="#8" y="15.197"/><use xlink:href="#6" y="17.368"/></svg><svg x="1320"><use xlink:href="#a"/><use xlink:href="#b" x="1.996" y="21.685"/><use xlink:href="#3"/><use xlink:href="#4" y="2.171"/><use xlink:href="#5" y="4.342"/><use xlink:href="#6" y="6.513"/><use xlink:href="#5" y="8.684"/><use xlink:href="#4" y="10.855"/><use xlink:href="#7" y="13.026"/><use xlink:href="#8" y="15.197"/><use xlink:href="#6" y="17.368"/><use xlink:href="#1" y="21.71"/></svg><svg x="1380"><use xlink:href="#a"/><use xlink:href="#b" x="2.996" y="21.685"/><use xlink:href="#3"/><use xlink:href="#4" y="2.171"/><use xlink:href="#5" y="4.342"/><use xlink:href="#6" y="6.513"/><use xlink:href="#5" y="8.684"/><use xlink:href="#4" y="10.855"/><use xlink:href="#7" y="13.026"/><use xlink:href="#8" y="15.197"/><use xlink:href="#6" y="17.368"/><text font-size="1.67" y="23.38" class="c">▶</text><text font-size="1.67" x="2.004" y="23.38" class="c">s</text></svg><svg x="1440"><use xlink:href="#a"/><use xlink:href="#b" x="3.996" y="21.685"/><use xlink:href="#3"/><use xlink:href="#4" y="2.171"/><use xlink:href="#5" y="4.342"/><use xlink:href="#6" y="6.513"/><use xlink:href="#5" y="8.684"/><use xlink:href="#4" y="10.855"/><use xlink:href="#7" y="13.026"/><use xlink:href="#8" y="15.197"/><use xlink:href="#6" y="17.368"/><text font-size="1.67" y="23.38" class="c">▶</text><text font-size="1.67" x="2.004" y="23.38" class="c">so</text></svg><svg x="1500"><use xlink:href="#a"/><use xlink:href="#b" x="4.996" y="21.685"/><use xlink:href="#3"/><use xlink:href="#4" y="2.171"/><use xlink:href="#5" y="4.342"/><use xlink:href="#6" y="6.513"/><use xlink:href="#5" y="8.684"/><use xlink:href="#4" y="10.855"/><use xlink:href="#7" y="13.026"/><use xlink:href="#8" y="15.197"/><use xlink:href="#6" y="17.368"/><text font-size="1.67" y="23.38" class="c">▶</text><text font-size="1.67" x="2.004" y="23.38" class="c">sor</text></svg><svg x="1560"><use xlink:href="#a"/><use xlink:href="#b" x="5.996" y="21.685"/><use xlink:href="#3"/><use xlink:href="#4" y="2.171"/><use xlink:href="#5" y="4.342"/><use xlink:href="#6" y="6.513"/><use xlink:href="#5" y="8.684"/><use xlink:href="#4" y="10.855"/><use xlink:href="#7" y="13.026"/><use xlink:href="#8" y="15.197"/><use xlink:href="#6" y="17.368"/><use xlink:href="#9" y="21.71"/></svg><svg x="1620"><use xlink:href="#a"/><use xlink:href="#b" x="6.996" y="21.685"/><use xlink:href="#3"/><use xlink:href="#4" y="2.171"/><use xlink:href="#5" y="4.342"/><use xlink:href="#6" y="6.513"/><use xlink:href="#5" y="8.684"/><use xlink:href="#4" y="10.855"/><use xlink:href="#7" y="13.026"/><use xlink:href="#8" y="15.197"/><use xlink:href="#6" y="17.368"/><use xlink:href="#9" y="21.71"/></svg><svg x="1680"><use xlink:href="#a"/><use xlink:href="#b" x="7.996" y="21.685"/><use xlink:href="#3"/><use xlink:href="#4" y="2.171"/><use xlink:href="#5" y="4.342"/><use xlink:href="#6" y="6.513"/><use xlink:href="#5" y="8.684"/><use xlink:href="#4" y="10.855"/><use xlink:href="#7" y="13.026"/><use xlink:href="#8" y="15.197"/><use xlink:href="#6" y="17.368"/><text font-size="1.67" y="23.38" class="c">▶</text><text font-size="1.67" x="2.004" y="23.38" class="c">sort</text><text font-size="1.67" x="7.014" y="23.38" class="c">-</text></svg><svg x="1740"><use xlink:href="#a"/><use xlink:href="#b" x="8.996" y="21.685"/><use xlink:href="#3"/><use xlink:href="#4" y="2.171"/><use xlink:href="#5" y="4.342"/><use xlink:href="#6" y="6.513"/><use xlink:href="#5" y="8.684"/><use xlink:href="#4" y="10.855"/><use xlink:href="#7" y="13.026"/><use xlink:href="#8" y="15.197"/><use xlink:href="#6" y="17.368"/><use xlink:href="#10" y="21.71"/></svg><svg x="1800"><use xlink:href="#a"/><use xlink:href="#b" x="9.996" y="21.685"/><use xlink:href="#3"/><use xlink:href="#4" y="2.171"/><use xlink:href="#5" y="4.342"/><use xlink:href="#6" y="6.513"/><use xlink:href="#5" y="8.684"/><use xlink:href="#4" y="10.855"/><use xlink:href="#7" y="13.026"/><use xlink:href="#8" y="15.197"/><use xlink:href="#6" y="17.368"/><use xlink:href="#10" y="21.71"/></svg><svg x="1860"><use xlink:href="#a"/><use xlink:href="#b" x="10.996" y="21.685"/><use xlink:href="#3"/><use xlink:href="#4" y="2.171"/><use xlink:href="#5" y="4.342"/><use xlink:href="#6" y="6.513"/><use xlink:href="#5" y="8.684"/><use xlink:href="#4" y="10.855"/><use xlink:href="#7" y="13.026"/><use xlink:href="#8" y="15.197"/><use xlink:href="#6" y="17.368"/><text font-size="1.67" y="23.38" class="c">▶</text><text font-size="1.67" x="2.004" y="23.38" class="c">sort</text><text font-size="1.67" x="7.014" y="23.38" class="c">-u</text><text font-size="1.67" x="10.02" y="23.38" class="c">b</text></svg><svg x="1920"><use xlink:href="#a"/><use xlink:href="#b" x="11.996" y="21.685"/><use xlink:href="#3"/><use xlink:href="#4" y="2.171"/><use xlink:href="#5" y="4.342"/><use xlink:href="#6" y="6.513"/><use xlink:href="#5" y="8.684"/><use xlink:href="#4" y="10.855"/><use xlink:href="#7" y="13.026"/><use xlink:href="#8" y="15.197"/><use xlink:href="#6" y="17.368"/><text font-size="1.67" y="23.38" class="c">▶</text><text font-size="1.67" x="2.004" y="23.38" class="c">sort</text><text font-size="1.67" x="7.014" y="23.38" class="c">-u</text><text font-size="1.67" x="10.02" y="23.38" class="c">br</text></svg><svg x="1980"><use xlink:href="#a"/><use xlink:href="#b" x="12.996" y="21.685"/><use xlink:href="#3"/><use xlink:href="#4" y="2.171"/><use xlink:href="#5" y="4.342"/><use xlink:href="#6" y="6.513"/><use xlink:href="#5" y="8.684"/><use xlink:href="#4" y="10.855"/><use xlink:href="#7" y="13.026"/><use xlink:href="#8" y="15.197"/><use xlink:href="#6" y="17.368"/><text font-size="1.67" y="23.38" class="c">▶</text><text font-size="1.67" x="2.004" y="23.38" class="c">sort</text><text font-size="1.67" x="7.014" y="23.38" class="c">-u</text><text font-size="1.67" x="10.02" y="23.38" class="c">bre</text></svg><svg x="2040"><use xlink:href="#a"/><use xlink:href="#b" x="13.996" y="21.685"/><use xlink:href="#3"/><use xlink:href="#4" y="2.171"/><use xlink:href="#5" y="4.342"/><use xlink:href="#6" y="6.513"/><use xlink:href="#5" y="8.684"/><use xlink:href="#4" y="10.855"/><use xlink:href="#7" y="13.026"/><use xlink:href="#8" y="15.197"/><use xlink:href="#6" y="17.368"/><text font-size="1.67" y="23.38" class="c">▶</text><text font-size="1.67" x="2.004" y="23.38" class="c">sort</text><text font-size="1.67" x="7.014" y="23.38" class="c">-u</text><text font-size="1.67" x="10.02" y="23.38" class="c">brea</text></svg><svg x="2100"><use xlink:href="#a"/><use xlink:href="#b" x="14.996" y="21.685"/><use xlink:href="#3"/><use xlink:href="#4" y="2.171"/><use xlink:href="#5" y="4.342"/><use xlink:href="#6" y="6.513"/><use xlink:href="#5" y="8.684"/><use xlink:href="#4" y="10.855"/><use xlink:href="#7" y="13.026"/><use xlink:href="#8" y="15.197"/><use xlink:href="#6" y="17.368"/><text font-size="1.67" y="23.38" class="c">▶</text><text font-size="1.67" x="2.004" y="23.38" class="c">sort</text><text font-size="1.67" x="7.014" y="23.38" class="c">-u</text><text font-size="1.67" x="10.02" y="23.38" class="c">break</text></svg><svg x="2160"><use xlink:href="#a"/><use xlink:href="#b" x="15.996" y="21.685"/><use xlink:href="#3"/><use xlink:href="#4" y="2.171"/><use xlink:href="#5" y="4.342"/><use xlink:href="#6" y="6.513"/><use xlink:href="#5" y="8.684"/><use xlink:href="#4" y="10.855"/><use xlink:href="#7" y="13.026"/><use xlink:href="#8" y="15.197"/><use xlink:href="#6" y="17.368"/><text font-size="1.67" y="23.38" class="c">▶</text><text font-size="1.67" x="2.004" y="23.38" class="c">sort</text><text font-size="1.67" x="7.014" y="23.38" class="c">-u</text><text font-size="1.67" x="10.02" y="23.38" class="c">breakf</text></svg><svg x="2220"><use xlink:href="#a"/><use xlink:href="#b" x="16.996" y="21.685"/><use xlink:href="#3"/><use xlink:href="#4" y="2.171"/><use xlink:href="#5" y="4.342"/><use xlink:href="#6" y="6.513"/><use xlink:href="#5" y="8.684"/><use xlink:href="#4" y="10.855"/><use xlink:href="#7" y="13.026"/><use xlink:href="#8" y="15.197"/><use xlink:href="#6" y="17.368"/><text font-size="1.67" y="23.38" class="c">▶</text><text font-size="1.67" x="2.004" y="23.38" class="c">sort</text><text font-size="1.67" x="7.014" y="23.38" class="c">-u</text><text font-size="1.67" x="10.02" y="23.38" class="c">breakfa</text></svg><svg x="2280"><use xlink:href="#a"/><use xlink:href="#b" x="17.996" y="21.685"/><use xlink:href="#3"/><use xlink:href="#4" y="2.171"/><use xlink:href="#5" y="4.342"/><use xlink:href="#6" y="6.513"/><use xlink:href="#5" y="8.684"/><use xlink:href="#4" y="10.855"/><use xlink:href="#7" y="13.026"/><use xlink:href="#8" y="15.197"/><use xlink:href="#6" y="17.368"/><text font-size="1.67" y="23.38" class="c">▶</text><text font-size="1.67" x="2.004" y="23.38" class="c">sort</text><text font-size="1.67" x="7.014" y="23.38" class="c">-u</text><text font-size="1.67" x="10.02" y="23.38" class="c">breakfas</text></svg><svg x="2340"><use xlink:href="#a"/><use xlink:href="#b" x="18.996" y="21.685"/><use xlink:href="#3"/><use xlink:href="#4" y="2.171"/><use xlink:href="#5" y="4.342"/><use xlink:href="#6" y="6.513"/><use xlink:href="#5" y="8.684"/><use xlink:href="#4" y="10.855"/><use xlink:href="#7" y="13.026"/><use xlink:href="#8" y="15.197"/><use xlink:href="#6" y="17.368"/><text font-size="1.67" y="23.38" class="c">▶</text><text font-size="1.67" x="2.004" y="23.38" class="c">sort</text><text font-size="1.67" x="7.014" y="23.38" class="c">-u</text><text font-size="1.67" x="10.02" y="23.38" class="c">breakfast</text></svg><svg x="2400"><use xlink:href="#a"/><use xlink:href="#b" x="19.996" y="21.685"/><use xlink:href="#3"/><use xlink:href="#4" y="2.171"/><use xlink:href="#5" y="4.342"/><use xlink:href="#6" y="6.513"/><use xlink:href="#5" y="8.684"/><use xlink:href="#4" y="10.855"/><use xlink:href="#7" y="13.026"/><use xlink:href="#8" y="15.197"/><use xlink:href="#6" y="17.368"/><text font-size="1.67" y="23.38" class="c">▶</text><text font-size="1.67" x="2.004" y="23.38" class="c">sort</text><text font-size="1.67" x="7.014" y="23.38" class="c">-u</text><text font-size="1.67" x="10.02" y="23.38" class="c">breakfast.</text></svg><svg x="2460"><use xlink:href="#a"/><use xlink:href="#b" x="20.996" y="21.685"/><use xlink:href="#3"/><use xlink:href="#4" y="2.171"/><use xlink:href="#5" y="4.342"/><use xlink:href="#6" y="6.513"/><use xlink:href="#5" y="8.684"/><use xlink:href="#4" y="10.855"/><use xlink:href="#7" y="13.026"/><use xlink:href="#8" y="15.197"/><use xlink:href="#6" y="17.368"/><text font-size="1.67" y="23.38" class="c">▶</text><text font-size="1.67" x="2.004" y="23.38" class="c">sort</text><text font-size="1.67" x="7.014" y="23.38" class="c">-u</text><text font-size="1.67" x="10.02" y="23.38" class="c">breakfast.t</text></svg><svg x="2520"><use xlink:href="#a"/><use xlink:href="#b" x="21.996" y="21.685"/><use xlink:href="#3"/><use xlink:href="#4" y="2.171"/><use xlink:href="#5" y="4.342"/><use xlink:href="#6" y="6.513"/><use xlink:href="#5" y="8.684"/><use xlink:href="#4" y="10.855"/><use xlink:href="#7" y="13.026"/><use xlink:href="#8" y="15.197"/><use xlink:href="#6" y="17.368"/><text font-size="1.67" y="23.38" class="c">▶</text><text font-size="1.67" x="2.004" y="23.38" class="c">sort</text><text font-size="1.67" x="7.014" y="23.38" class="c">-u</text><text font-size="1.67" x="10.02" y="23.38" class="c">breakfast.tx</text></svg><svg x="2580"><use xlink:href="#a"/><use xlink:href="#b" x="22.996" y="21.685"/><use xlink:href="#3"/><use xlink:href="#4" y="2.171"/><use xlink:href="#5" y="4.342"/><use xlink:href="#6" y="6.513"/><use xlink:href="#5" y="8.684"/><use xlink:href="#4" y="10.855"/><use xlink:href="#7" y="13.026"/><use xlink:href="#8" y="15.197"/><use xlink:href="#6" y="17.368"/><use xlink:href="#11" y="21.71"/></svg><svg x="2640"><use xlink:href="#a"/><use xlink:href="#b" x="-.004" y="23.856"/><use xlink:href="#3"/><use xlink:href="#4" y="2.171"/><use xlink:href="#5" y="4.342"/><use xlink:href="#6" y="6.513"/><use xlink:href="#5" y="8.684"/><use xlink:href="#4" y="10.855"/><use xlink:href="#7" y="13.026"/><use xlink:href="#8" y="15.197"/><use xlink:href="#6" y="17.368"/><use xlink:href="#11" y="21.71"/></svg><svg x="2700"><use xlink:href="#a"/><use xlink:href="#b" x="-.004" y="32.54"/><use xlink:href="#4"/><use xlink:href="#5" y="2.171"/><use xlink:href="#6" y="4.342"/><use xlink:href="#5" y="6.513"/><use xlink:href="#4" y="8.684"/><use xlink:href="#7" y="10.855"/><use xlink:href="#8" y="13.026"/><use xlink:href="#6" y="15.197"/><use xlink:href="#11" y="19.539"/><use xlink:href="#8" y="21.71"/><use xlink:href="#4" y="23.881"/><use xlink:href="#7" y="26.052"/><use xlink:href="#5" y="28.223"/><use xlink:href="#6" y="30.394"/></svg><svg x="2760"><use xlink:href="#a"/><use xlink:href="#b" x="-.004" y="32.54"/><use xlink:href="#5"/><use xlink:href="#6" y="2.171"/><use xlink:href="#5" y="4.342"/><use xlink:href="#4" y="6.513"/><use xlink:href="#7" y="8.684"/><use xlink:href="#8" y="10.855"/><use xlink:href="#6" y="13.026"/><use xlink:href="#11" y="17.368"/><use xlink:href="#8" y="19.539"/><use xlink:href="#4" y="21.71"/><use xlink:href="#7" y="23.881"/><use xlink:href="#5" y="26.052"/><use xlink:href="#6" y="28.223"/></svg><svg x="2820"><use xlink:href="#a"/><use xlink:href="#b" x="1.996" y="32.54"/><use xlink:href="#5"/><use xlink:href="#6" y="2.171"/><use xlink:href="#5" y="4.342"/><use xlink:href="#4" y="6.513"/><use xlink:href="#7" y="8.684"/><use xlink:href="#8" y="10.855"/><use xlink:href="#6" y="13.026"/><use xlink:href="#11" y="17.368"/><use xlink:href="#8" y="19.539"/><use xlink:href="#4" y="21.71"/><use xlink:href="#7" y="23.881"/><use xlink:href="#5" y="26.052"/><use xlink:href="#6" y="28.223"/><use xlink:href="#1" y="32.565"/></svg><svg x="2880"><use xlink:href="#a"/><use xlink:href="#b" x="-.004" y="32.54"/><use xlink:href="#6"/><use xlink:href="#5" y="2.171"/><use xlink:href="#4" y="4.342"/><use xlink:href="#7" y="6.513"/><use xlink:href="#8" y="8.684"/><use xlink:href="#6" y="10.855"/><use xlink:href="#11" y="15.197"/><use xlink:href="#8" y="17.368"/><use xlink:href="#4" y="19.539"/><use xlink:href="#7" y="21.71"/><use xlink:href="#5" y="23.881"/><use xlink:href="#6" y="26.052"/><use xlink:href="#1" y="30.394"/></svg></svg></g></g></svg></svg>