<svg xmlns="http://www.w3.org/2000/svg" xmlns:xlink="http://www.w3.org/1999/xlink" width="620" height="345.65"><rect width="620" height="345.65" rx="0" ry="0" class="a"/><svg height="325.65" viewBox="0 0 60 32.565" width="600" x="10" xmlns="http://www.w3.org/2000/svg" xmlns:xlink="http://www.w3.org/1999/xlink" y="10"><style>@keyframes f{0%{transform:translateX(-60px)}7.9%{transform:translateX(-120px)}8.5%{transform:translateX(-180px)}9.1%{transform:translateX(-240px)}9.7%{transform:translateX(-300px)}10.8%{transform:translateX(-360px)}11.4%{transform:translateX(-420px)}12%{transform:translateX(-480px)}12.6%{transform:translateX(-540px)}14.4%{transform:translateX(-600px)}15%{transform:translateX(-660px)}15.6%{transform:translateX(-720px)}16.2%{transform:translateX(-780px)}17.4%{transform:translateX(-840px)}18%{transform:translateX(-900px)}21.3%{transform:translateX(-1020px)}22.6%{transform:translateX(-1140px)}30.4%{transform:translateX(-1200px)}31%{transform:translateX(-1260px)}31.6%{transform:translateX(-1320px)}32.2%{transform:translateX(-1380px)}32.8%{transform:translateX(-1440px)}33.4%{transform:translateX(-1500px)}34%{transform:translateX(-1560px)}34.6%{transform:translateX(-1620px)}36.4%{transform:translateX(-1680px)}37%{transform:translateX(-1740px)}37.6%{transform:translateX(-1800px)}38.2%{transform:translateX(-1860px)}38.8%{transform:translateX(-1920px)}39.4%{transform:translateX(-1980px)}40%{transform:translateX(-2040px)}40.6%{transform:translateX(-2100px)}41.2%{transform:translateX(-2160px)}42.9%{transform:translateX(-2220px)}43.5%{transform:translateX(-2280px)}44.1%{transform:translateX(-2340px)}44.7%{transform:translateX(-2400px)}45.3%{transform:translateX(-2460px)}45.9%{transform:translateX(-2520px)}46.5%{transform:translateX(-2580px)}47.1%{transform:translateX(-2640px)}50.4%{transform:translateX(-2700px)}50.5%{transform:translateX(-2880px)}58.3%{transform:translateX(-2940px)}58.9%{transform:translateX(-3000px)}59.5%{transform:translateX(-3060px)}60.1%{transform:translateX(-3120px)}61.3%{transform:translateX(-3180px)}61.9%{transform:translateX(-3240px)}62.5%{transform:translateX(-3300px)}63.1%{transform:translateX(-3360px)}64.9%{transform:translateX(-3420px)}65.5%{transform:translateX(-3480px)}66.1%{transform:translateX(-3540px)}66.7%{transform:translateX(-3600px)}67.9%{transform:translateX(-3660px)}68.5%{transform:translateX(-3720px)}69.1%{transform:translateX(-3780px)}70.3%{transform:translateX(-3840px)}71.5%{transform:translateX(-3900px)}72.1%{transform:translateX(-3960px)}72.7%{transform:translateX(-4020px)}73.3%{transform:translateX(-4080px)}74.4%{transform:translateX(-4140px)}75%{transform:translateX(-4200px)}76.2%{transform:translateX(-4260px)}76.8%{transform:translateX(-4320px)}78%{transform:translateX(-4380px)}78.6%{transform:translateX(-4440px)}79.2%{transform:translateX(-4500px)}79.8%{transform:translateX(-4560px)}81%{transform:translateX(-4620px)}81.6%{transform:translateX(-4680px)}82.8%{transform:translateX(-4740px)}83.4%{transform:translateX(-4800px)}86.7%{transform:translateX(-4920px)}86.8%{transform:translateX(-5040px)}to{transform:translateX(-5100px)}}.a{fill:#eff1f5}.c{fill:#4c4f69;white-space:pre}</style><g font-family="Monaco,Consolas,Menlo,'Bitstream Vera Sans Mono','Powerline Symbols',monospace" font-size="1.67"><defs><symbol id="1"><text font-size="1.67" y="1.67" class="c">▶</text></symbol><symbol id="2"><text font-size="1.67" y="1.67" class="c">▶</text><text font-size="1.67" x="2.004" y="1.67" class="c">cat</text></symbol><symbol id="3"><text font-size="1.67" y="1.67" class="c">▶</text><text font-size="1.67" x="2.004" y="1.67" class="c">cat</text><text font-size="1.67" x="6.012" y="1.67" class="c">cheese.csv</text></symbol><symbol id="4"><text font-size="1.67" y="1.67" class="c">2,Maroilles,1.13</text></symbol><symbol id="5"><text font-size="1.67" y="1.67" class="c">3,Stinking</text><text font-size="1.67" x="11.022" y="1.67" class="c">Bishop,1.65</text></symbol><symbol id="6"><text font-size="1.67" y="1.67" class="c">1,Brie</text><text font-size="1.67" x="7.014" y="1.67" class="c">de</text><text font-size="1.67" x="10.02" y="1.67" class="c">Meaux,1.99</text></symbol><symbol id="7"><text font-size="1.67" y="1.67" class="c">4,Munster,1.29</text></symbol><symbol id="8"><text font-size="1.67" y="1.67" class="c">▶</text><text font-size="1.67" x="2.004" y="1.67" class="c">s</text></symbol><symbol id="9"><text font-size="1.67" y="1.67" class="c">▶</text><text font-size="1.67" x="2.004" y="1.67" class="c">so</text></symbol><symbol id="10"><text font-size="1.67" y="1.67" class="c">▶</text><text font-size="1.67" x="2.004" y="1.67" class="c">sor</text></symbol><symbol id="11"><text font-size="1.67" y="1.67" class="c">▶</text><text font-size="1.67" x="2.004" y="1.67" class="c">sort</text></symbol><symbol id="12"><text font-size="1.67" y="1.67" class="c">▶</text><text font-size="1.67" x="2.004" y="1.67" class="c">sort</text><text font-size="1.67" x="7.014" y="1.67" class="c">-</text></symbol><symbol id="13"><text font-size="1.67" y="1.67" class="c">▶</text><text font-size="1.67" x="2.004" y="1.67" class="c">sort</text><text font-size="1.67" x="7.014" y="1.67" class="c">-k</text></symbol><symbol id="14"><text font-size="1.67" y="1.67" class="c">▶</text><text font-size="1.67" x="2.004" y="1.67" class="c">sort</text><text font-size="1.67" x="7.014" y="1.67" class="c">-k</text><text font-size="1.67" x="10.02" y="1.67" class="c">2</text></symbol><symbol id="15"><text font-size="1.67" y="1.67" class="c">▶</text><text font-size="1.67" x="2.004" y="1.67" class="c">sort</text><text font-size="1.67" x="7.014" y="1.67" class="c">-k</text><text font-size="1.67" x="10.02" y="1.67" class="c">2</text><text font-size="1.67" x="12.024" y="1.67" class="c">-t</text></symbol><symbol id="16"><text font-size="1.67" y="1.67" class="c">▶</text><text font-size="1.67" x="2.004" y="1.67" class="c">sort</text><text font-size="1.67" x="7.014" y="1.67" class="c">-k</text><text font-size="1.67" x="10.02" y="1.67" class="c">2</text><text font-size="1.67" x="12.024" y="1.67" class="c">-t</text><text font-size="1.67" x="15.03" y="1.67" class="c">,</text></symbol><symbol id="17"><text font-size="1.67" y="1.67" class="c">▶</text><text font-size="1.67" x="2.004" y="1.67" class="c">sort</text><text font-size="1.67" x="7.014" y="1.67" class="c">-k</text><text font-size="1.67" x="10.02" y="1.67" class="c">2</text><text font-size="1.67" x="12.024" y="1.67" class="c">-t</text><text font-size="1.67" x="15.03" y="1.67" class="c">,</text><text font-size="1.67" x="17.034" y="1.67" class="c">cheese.csv</text></symbol><symbol id="18"><text font-size="1.67" y="1.67" class="c">▶</text><text font-size="1.67" x="2.004" y="1.67" class="c">sort</text><text font-size="1.67" x="7.014" y="1.67" class="c">-k</text><text font-size="1.67" x="10.02" y="1.67" class="c">3</text></symbol><symbol id="19"><text font-size="1.67" y="1.67" class="c">▶</text><text font-size="1.67" x="2.004" y="1.67" class="c">sort</text><text font-size="1.67" x="7.014" y="1.67" class="c">-k</text><text font-size="1.67" x="10.02" y="1.67" class="c">3</text><text font-size="1.67" x="12.024" y="1.67" class="c">-t</text></symbol><symbol id="20"><text font-size="1.67" y="1.67" class="c">▶</text><text font-size="1.67" x="2.004" y="1.67" class="c">sort</text><text font-size="1.67" x="7.014" y="1.67" class="c">-k</text><text font-size="1.67" x="10.02" y="1.67" class="c">3</text><text font-size="1.67" x="12.024" y="1.67" class="c">-t</text><text font-size="1.67" x="15.03" y="1.67" class="c">,</text></symbol><symbol id="21"><text font-size="1.67" y="1.67" class="c">▶</text><text font-size="1.67" x="2.004" y="1.67" class="c">sort</text><text font-size="1.67" x="7.014" y="1.67" class="c">-k</text><text font-size="1.67" x="10.02" y="1.67" class="c">3</text><text font-size="1.67" x="12.024" y="1.67" class="c">-t</text><text font-size="1.67" x="15.03" y="1.67" class="c">,</text><text font-size="1.67" x="17.034" y="1.67" class="c">-n</text></symbol><symbol id="22"><text font-size="1.67" y="1.67" class="c">▶</text><text font-size="1.67" x="2.004" y="1.67" class="c">sort</text><text font-size="1.67" x="7.014" y="1.67" class="c">-k</text><text font-size="1.67" x="10.02" y="1.67" class="c">3</text><text font-size="1.67" x="12.024" y="1.67" class="c">-t</text><text font-size="1.67" x="15.03" y="1.67" class="c">,</text><text font-size="1.67" x="17.034" y="1.67" class="c">-n</text><text font-size="1.67" x="20.04" y="1.67" class="c">-r</text></symbol><symbol id="23"><text font-size="1.67" y="1.67" class="c">▶</text><text font-size="1.67" x="2.004" y="1.67" class="c">sort</text><text font-size="1.67" x="7.014" y="1.67" class="c">-k</text><text font-size="1.67" x="10.02" y="1.67" class="c">3</text><text font-size="1.67" x="12.024" y="1.67" class="c">-t</text><text font-size="1.67" x="15.03" y="1.67" class="c">,</text><text font-size="1.67" x="17.034" y="1.67" class="c">-n</text><text font-size="1.67" x="20.04" y="1.67" class="c">-r</text><text font-size="1.67" x="24.048" y="1.67" class="c">cheese.csv</text></symbol><symbol id="a"><path fill="transparent" d="M0 0h60v16H0z"/></symbol><symbol id="b"><path fill="#dc8a78" d="M0 0h1.102v2.171H0z"/></symbol></defs><path class="a" d="M0 0h60v32.565H0z"/><g style="animation-duration:15.118713s;animation-iteration-count:infinite;animation-name:f;animation-timing-function:steps(1,end)"><svg width="5160"><svg><use xlink:href="#a"/><use xlink:href="#b" x="-.004"/></svg><svg x="60"><use xlink:href="#a"/><use xlink:href="#b" x="1.996"/><use xlink:href="#1"/></svg><svg x="120"><use xlink:href="#a"/><use xlink:href="#b" x="2.996"/><text font-size="1.67" y="1.67" class="c">▶</text><text font-size="1.67" x="2.004" y="1.67" class="c">c</text></svg><svg x="180"><use xlink:href="#a"/><use xlink:href="#b" x="3.996"/><text font-size="1.67" y="1.67" class="c">▶</text><text font-size="1.67" x="2.004" y="1.67" class="c">ca</text></svg><svg x="240"><use xlink:href="#a"/><use xlink:href="#b" x="4.996"/><use xlink:href="#2"/></svg><svg x="300"><use xlink:href="#a"/><use xlink:href="#b" x="5.996"/><use xlink:href="#2"/></svg><svg x="360"><use xlink:href="#a"/><use xlink:href="#b" x="6.996"/><text font-size="1.67" y="1.67" class="c">▶</text><text font-size="1.67" x="2.004" y="1.67" class="c">cat</text><text font-size="1.67" x="6.012" y="1.67" class="c">c</text></svg><svg x="420"><use xlink:href="#a"/><use xlink:href="#b" x="7.996"/><text font-size="1.67" y="1.67" class="c">▶</text><text font-size="1.67" x="2.004" y="1.67" class="c">cat</text><text font-size="1.67" x="6.012" y="1.67" class="c">ch</text></svg><svg x="480"><use xlink:href="#a"/><use xlink:href="#b" x="8.996"/><text font-size="1.67" y="1.67" class="c">▶</text><text font-size="1.67" x="2.004" y="1.67" class="c">cat</text><text font-size="1.67" x="6.012" y="1.67" class="c">che</text></svg><svg x="540"><use xlink:href="#a"/><use xlink:href="#b" x="9.996"/><text font-size="1.67" y="1.67" class="c">▶</text><text font-size="1.67" x="2.004" y="1.67" class="c">cat</text><text font-size="1.67" x="6.012" y="1.67" class="c">chee</text></svg><svg x="600"><use xlink:href="#a"/><use xlink:href="#b" x="10.996"/><text font-size="1.67" y="1.67" class="c">▶</text><text font-size="1.67" x="2.004" y="1.67" class="c">cat</text><text font-size="1.67" x="6.012" y="1.67" class="c">chees</text></svg><svg x="660"><use xlink:href="#a"/><use xlink:href="#b" x="11.996"/><text font-size="1.67" y="1.67" class="c">▶</text><text font-size="1.67" x="2.004" y="1.67" class="c">cat</text><text font-size="1.67" x="6.012" y="1.67" class="c">cheese</text></svg><svg x="720"><use xlink:href="#a"/><use xlink:href="#b" x="12.996"/><text font-size="1.67" y="1.67" class="c">▶</text><text font-size="1.67" x="2.004" y="1.67" class="c">cat</text><text font-size="1.67" x="6.012" y="1.67" class="c">cheese.</text></svg><svg x="780"><use xlink:href="#a"/><use xlink:href="#b" x="13.996"/><text font-size="1.67" y="1.67" class="c">▶</text><text font-size="1.67" x="2.004" y="1.67" class="c">cat</text><text font-size="1.67" x="6.012" y="1.67" class="c">cheese.c</text></svg><svg x="840"><use xlink:href="#a"/><use xlink:href="#b" x="14.996"/><text font-size="1.67" y="1.67" class="c">▶</text><text font-size="1.67" x="2.004" y="1.67" class="c">cat</text><text font-size="1.67" x="6.012" y="1.67" class="c">cheese.cs</text></svg><svg x="900"><use xlink:href="#a"/><use xlink:href="#b" x="15.996"/><use xlink:href="#3"/></svg><svg x="960"><use xlink:href="#a"/><use xlink:href="#b" x="-.004" y="2.146"/><use xlink:href="#3"/></svg><svg x="1020"><use xlink:href="#a"/><use xlink:href="#b" x="-.004" y="10.83"/><use xlink:href="#3"/><use xlink:href="#4" y="2.171"/><use xlink:href="#5" y="4.342"/><use xlink:href="#6" y="6.513"/><use xlink:href="#7" y="8.684"/></svg><svg x="1080"><use xlink:href="#a"/><use xlink:href="#b" x="-.004" y="13.001"/><use xlink:href="#3"/><use xlink:href="#4" y="2.171"/><use xlink:href="#5" y="4.342"/><use xlink:href="#6" y="6.513"/><use xlink:href="#7" y="8.684"/></svg><svg x="1140"><use xlink:href="#a"/><use xlink:href="#b" x="1.996" y="13.001"/><use xlink:href="#3"/><use xlink:href="#4" y="2.171"/><use xlink:href="#5" y="4.342"/><use xlink:href="#6" y="6.513"/><use xlink:href="#7" y="8.684"/><use xlink:href="#1" y="13.026"/></svg><svg x="1200"><use xlink:href="#a"/><use xlink:href="#b" x="2.996" y="13.001"/><use xlink:href="#3"/><use xlink:href="#4" y="2.171"/><use xlink:href="#5" y="4.342"/><use xlink:href="#6" y="6.513"/><use xlink:href="#7" y="8.684"/><use xlink:href="#8" y="13.026"/></svg><svg x="1260"><use xlink:href="#a"/><use xlink:href="#b" x="3.996" y="13.001"/><use xlink:href="#3"/><use xlink:href="#4" y="2.171"/><use xlink:href="#5" y="4.342"/><use xlink:href="#6" y="6.513"/><use xlink:href="#7" y="8.684"/><use xlink:href="#9" y="13.026"/></svg><svg x="1320"><use xlink:href="#a"/><use xlink:href="#b" x="4.996" y="13.001"/><use xlink:href="#3"/><use xlink:href="#4" y="2.171"/><use xlink:href="#5" y="4.342"/><use xlink:href="#6" y="6.513"/><use xlink:href="#7" y="8.684"/><use xlink:href="#10" y="13.026"/></svg><svg x="1380"><use xlink:href="#a"/><use xlink:href="#b" x="5.996" y="13.001"/><use xlink:href="#3"/><use xlink:href="#4" y="2.171"/><use xlink:href="#5" y="4.342"/><use xlink:href="#6" y="6.513"/><use xlink:href="#7" y="8.684"/><use xlink:href="#11" y="13.026"/></svg><svg x="1440"><use xlink:href="#a"/><use xlink:href="#b" x="6.996" y="13.001"/><use xlink:href="#3"/><use xlink:href="#4" y="2.171"/><use xlink:href="#5" y="4.342"/><use xlink:href="#6" y="6.513"/><use xlink:href="#7" y="8.684"/><use xlink:href="#11" y="13.026"/></svg><svg x="1500"><use xlink:href="#a"/><use xlink:href="#b" x="7.996" y="13.001"/><use xlink:href="#3"/><use xlink:href="#4" y="2.171"/><use xlink:href="#5" y="4.342"/><use xlink:href="#6" y="6.513"/><use xlink:href="#7" y="8.684"/><use xlink:href="#12" y="13.026"/></svg><svg x="1560"><use xlink:href="#a"/><use xlink:href="#b" x="8.996" y="13.001"/><use xlink:href="#3"/><use xlink:href="#4" y="2.171"/><use xlink:href="#5" y="4.342"/><use xlink:href="#6" y="6.513"/><use xlink:href="#7" y="8.684"/><use xlink:href="#13" y="13.026"/></svg><svg x="1620"><use xlink:href="#a"/><use xlink:href="#b" x="9.996" y="13.001"/><use xlink:href="#3"/><use xlink:href="#4" y="2.171"/><use xlink:href="#5" y="4.342"/><use xlink:href="#6" y="6.513"/><use xlink:href="#7" y="8.684"/><use xlink:href="#13" y="13.026"/></svg><svg x="1680"><use xlink:href="#a"/><use xlink:href="#b" x="10.996" y="13.001"/><use xlink:href="#3"/><use xlink:href="#4" y="2.171"/><use xlink:href="#5" y="4.342"/><use xlink:href="#6" y="6.513"/><use xlink:href="#7" y="8.684"/><use xlink:href="#14" y="13.026"/></svg><svg x="1740"><use xlink:href="#a"/><use xlink:href="#b" x="11.996" y="13.001"/><use xlink:href="#3"/><use xlink:href="#4" y="2.171"/><use xlink:href="#5" y="4.342"/><use xlink:href="#6" y="6.513"/><use xlink:href="#7" y="8.684"/><use xlink:href="#14" y="13.026"/></svg><svg x="1800"><use xlink:href="#a"/><use xlink:href="#b" x="12.996" y="13.001"/><use xlink:href="#3"/><use xlink:href="#4" y="2.171"/><use xlink:href="#5" y="4.342"/><use xlink:href="#6" y="6.513"/><use xlink:href="#7" y="8.684"/><text font-size="1.67" y="14.696" class="c">▶</text><text font-size="1.67" x="2.004" y="14.696" class="c">sort</text><text font-size="1.67" x="7.014" y="14.696" class="c">-k</text><text font-size="1.67" x="10.02" y="14.696" class="c">2</text><text font-size="1.67" x="12.024" y="14.696" class="c">-</text></svg><svg x="1860"><use xlink:href="#a"/><use xlink:href="#b" x="13.996" y="13.001"/><use xlink:href="#3"/><use xlink:href="#4" y="2.171"/><use xlink:href="#5" y="4.342"/><use xlink:href="#6" y="6.513"/><use xlink:href="#7" y="8.684"/><use xlink:href="#15" y="13.026"/></svg><svg x="1920"><use xlink:href="#a"/><use xlink:href="#b" x="14.996" y="13.001"/><use xlink:href="#3"/><use xlink:href="#4" y="2.171"/><use xlink:href="#5" y="4.342"/><use xlink:href="#6" y="6.513"/><use xlink:href="#7" y="8.684"/><use xlink:href="#15" y="13.026"/></svg><svg x="1980"><use xlink:href="#a"/><use xlink:href="#b" x="15.996" y="13.001"/><use xlink:href="#3"/><use xlink:href="#4" y="2.171"/><use xlink:href="#5" y="4.342"/><use xlink:href="#6" y="6.513"/><use xlink:href="#7" y="8.684"/><use xlink:href="#16" y="13.026"/></svg><svg x="2040"><use xlink:href="#a"/><use xlink:href="#b" x="16.996" y="13.001"/><use xlink:href="#3"/><use xlink:href="#4" y="2.171"/><use xlink:href="#5" y="4.342"/><use xlink:href="#6" y="6.513"/><use xlink:href="#7" y="8.684"/><use xlink:href="#16" y="13.026"/></svg><svg x="2100"><use xlink:href="#a"/><use xlink:href="#b" x="17.996" y="13.001"/><use xlink:href="#3"/><use xlink:href="#4" y="2.171"/><use xlink:href="#5" y="4.342"/><use xlink:href="#6" y="6.513"/><use xlink:href="#7" y="8.684"/><text font-size="1.67" y="14.696" class="c">▶</text><text font-size="1.67" x="2.004" y="14.696" class="c">sort</text><text font-size="1.67" x="7.014" y="14.696" class="c">-k</text><text font-size="1.67" x="10.02" y="14.696" class="c">2</text><text font-size="1.67" x="12.024" y="14.696" class="c">-t</text><text font-size="1.67" x="15.03" y="14.696" class="c">,</text><text font-size="1.67" x="17.034" y="14.696" class="c">c</text></svg><svg x="2160"><use xlink:href="#a"/><use xlink:href="#b" x="18.996" y="13.001"/><use xlink:href="#3"/><use xlink:href="#4" y="2.171"/><use xlink:href="#5" y="4.342"/><use xlink:href="#6" y="6.513"/><use xlink:href="#7" y="8.684"/><text font-size="1.67" y="14.696" class="c">▶</text><text font-size="1.67" x="2.004" y="14.696" class="c">sort</text><text font-size="1.67" x="7.014" y="14.696" class="c">-k</text><text font-size="1.67" x="10.02" y="14.696" class="c">2</text><text font-size="1.67" x="12.024" y="14.696" class="c">-t</text><text font-size="1.67" x="15.03" y="14.696" class="c">,</text><text font-size="1.67" x="17.034" y="14.696" class="c">ch</text></svg><svg x="2220"><use xlink:href="#a"/><use xlink:href="#b" x="19.996" y="13.001"/><use xlink:href="#3"/><use xlink:href="#4" y="2.171"/><use xlink:href="#5" y="4.342"/><use xlink:href="#6" y="6.513"/><use xlink:href="#7" y="8.684"/><text font-size="1.67" y="14.696" class="c">▶</text><text font-size="1.67" x="2.004" y="14.696" class="c">sort</text><text font-size="1.67" x="7.014" y="14.696" class="c">-k</text><text font-size="1.67" x="10.02" y="14.696" class="c">2</text><text font-size="1.67" x="12.024" y="14.696" class="c">-t</text><text font-size="1.67" x="15.03" y="14.696" class="c">,</text><text font-size="1.67" x="17.034" y="14.696" class="c">che</text></svg><svg x="2280"><use xlink:href="#a"/><use xlink:href="#b" x="20.996" y="13.001"/><use xlink:href="#3"/><use xlink:href="#4" y="2.171"/><use xlink:href="#5" y="4.342"/><use xlink:href="#6" y="6.513"/><use xlink:href="#7" y="8.684"/><text font-size="1.67" y="14.696" class="c">▶</text><text font-size="1.67" x="2.004" y="14.696" class="c">sort</text><text font-size="1.67" x="7.014" y="14.696" class="c">-k</text><text font-size="1.67" x="10.02" y="14.696" class="c">2</text><text font-size="1.67" x="12.024" y="14.696" class="c">-t</text><text font-size="1.67" x="15.03" y="14.696" class="c">,</text><text font-size="1.67" x="17.034" y="14.696" class="c">chee</text></svg><svg x="2340"><use xlink:href="#a"/><use xlink:href="#b" x="21.996" y="13.001"/><use xlink:href="#3"/><use xlink:href="#4" y="2.171"/><use xlink:href="#5" y="4.342"/><use xlink:href="#6" y="6.513"/><use xlink:href="#7" y="8.684"/><text font-size="1.67" y="14.696" class="c">▶</text><text font-size="1.67" x="2.004" y="14.696" class="c">sort</text><text font-size="1.67" x="7.014" y="14.696" class="c">-k</text><text font-size="1.67" x="10.02" y="14.696" class="c">2</text><text font-size="1.67" x="12.024" y="14.696" class="c">-t</text><text font-size="1.67" x="15.03" y="14.696" class="c">,</text><text font-size="1.67" x="17.034" y="14.696" class="c">chees</text></svg><svg x="2400"><use xlink:href="#a"/><use xlink:href="#b" x="22.996" y="13.001"/><use xlink:href="#3"/><use xlink:href="#4" y="2.171"/><use xlink:href="#5" y="4.342"/><use xlink:href="#6" y="6.513"/><use xlink:href="#7" y="8.684"/><text font-size="1.67" y="14.696" class="c">▶</text><text font-size="1.67" x="2.004" y="14.696" class="c">sort</text><text font-size="1.67" x="7.014" y="14.696" class="c">-k</text><text font-size="1.67" x="10.02" y="14.696" class="c">2</text><text font-size="1.67" x="12.024" y="14.696" class="c">-t</text><text font-size="1.67" x="15.03" y="14.696" class="c">,</text><text font-size="1.67" x="17.034" y="14.696" class="c">cheese</text></svg><svg x="2460"><use xlink:href="#a"/><use xlink:href="#b" x="23.996" y="13.001"/><use xlink:href="#3"/><use xlink:href="#4" y="2.171"/><use xlink:href="#5" y="4.342"/><use xlink:href="#6" y="6.513"/><use xlink:href="#7" y="8.684"/><text font-size="1.67" y="14.696" class="c">▶</text><text font-size="1.67" x="2.004" y="14.696" class="c">sort</text><text font-size="1.67" x="7.014" y="14.696" class="c">-k</text><text font-size="1.67" x="10.02" y="14.696" class="c">2</text><text font-size="1.67" x="12.024" y="14.696" class="c">-t</text><text font-size="1.67" x="15.03" y="14.696" class="c">,</text><text font-size="1.67" x="17.034" y="14.696" class="c">cheese.</text></svg><svg x="2520"><use xlink:href="#a"/><use xlink:href="#b" x="24.996" y="13.001"/><use xlink:href="#3"/><use xlink:href="#4" y="2.171"/><use xlink:href="#5" y="4.342"/><use xlink:href="#6" y="6.513"/><use xlink:href="#7" y="8.684"/><text font-size="1.67" y="14.696" class="c">▶</text><text font-size="1.67" x="2.004" y="14.696" class="c">sort</text><text font-size="1.67" x="7.014" y="14.696" class="c">-k</text><text font-size="1.67" x="10.02" y="14.696" class="c">2</text><text font-size="1.67" x="12.024" y="14.696" class="c">-t</text><text font-size="1.67" x="15.03" y="14.696" class="c">,</text><text font-size="1.67" x="17.034" y="14.696" class="c">cheese.c</text></svg><svg x="2580"><use xlink:href="#a"/><use xlink:href="#b" x="25.996" y="13.001"/><use xlink:href="#3"/><use xlink:href="#4" y="2.171"/><use xlink:href="#5" y="4.342"/><use xlink:href="#6" y="6.513"/><use xlink:href="#7" y="8.684"/><text font-size="1.67" y="14.696" class="c">▶</text><text font-size="1.67" x="2.004" y="14.696" class="c">sort</text><text font-size="1.67" x="7.014" y="14.696" class="c">-k</text><text font-size="1.67" x="10.02" y="14.696" class="c">2</text><text font-size="1.67" x="12.024" y="14.696" class="c">-t</text><text font-size="1.67" x="15.03" y="14.696" class="c">,</text><text font-size="1.67" x="17.034" y="14.696" class="c">cheese.cs</text></svg><svg x="2640"><use xlink:href="#a"/><use xlink:href="#b" x="26.996" y="13.001"/><use xlink:href="#3"/><use xlink:href="#4" y="2.171"/><use xlink:href="#5" y="4.342"/><use xlink:href="#6" y="6.513"/><use xlink:href="#7" y="8.684"/><use xlink:href="#17" y="13.026"/></svg><svg x="2700"><use xlink:href="#a"/><use xlink:href="#b" x="-.004" y="15.172"/><use xlink:href="#3"/><use xlink:href="#4" y="2.171"/><use xlink:href="#5" y="4.342"/><use xlink:href="#6" y="6.513"/><use xlink:href="#7" y="8.684"/><use xlink:href="#17" y="13.026"/></svg><svg x="2760"><use xlink:href="#a"/><use xlink:href="#b" x="-.004" y="23.856"/><use xlink:href="#3"/><use xlink:href="#4" y="2.171"/><use xlink:href="#5" y="4.342"/><use xlink:href="#6" y="6.513"/><use xlink:href="#7" y="8.684"/><use xlink:href="#17" y="13.026"/><use xlink:href="#6" y="15.197"/><use xlink:href="#4" y="17.368"/><use xlink:href="#7" y="19.539"/><use xlink:href="#5" y="21.71"/></svg><svg x="2820"><use xlink:href="#a"/><use xlink:href="#b" x="-.004" y="26.027"/><use xlink:href="#3"/><use xlink:href="#4" y="2.171"/><use xlink:href="#5" y="4.342"/><use xlink:href="#6" y="6.513"/><use xlink:href="#7" y="8.684"/><use xlink:href="#17" y="13.026"/><use xlink:href="#6" y="15.197"/><use xlink:href="#4" y="17.368"/><use xlink:href="#7" y="19.539"/><use xlink:href="#5" y="21.71"/></svg><svg x="2880"><use xlink:href="#a"/><use xlink:href="#b" x="1.996" y="26.027"/><use xlink:href="#3"/><use xlink:href="#4" y="2.171"/><use xlink:href="#5" y="4.342"/><use xlink:href="#6" y="6.513"/><use xlink:href="#7" y="8.684"/><use xlink:href="#17" y="13.026"/><use xlink:href="#6" y="15.197"/><use xlink:href="#4" y="17.368"/><use xlink:href="#7" y="19.539"/><use xlink:href="#5" y="21.71"/><use xlink:href="#1" y="26.052"/></svg><svg x="2940"><use xlink:href="#a"/><use xlink:href="#b" x="2.996" y="26.027"/><use xlink:href="#3"/><use xlink:href="#4" y="2.171"/><use xlink:href="#5" y="4.342"/><use xlink:href="#6" y="6.513"/><use xlink:href="#7" y="8.684"/><use xlink:href="#17" y="13.026"/><use xlink:href="#6" y="15.197"/><use xlink:href="#4" y="17.368"/><use xlink:href="#7" y="19.539"/><use xlink:href="#5" y="21.71"/><use xlink:href="#8" y="26.052"/></svg><svg x="3000"><use xlink:href="#a"/><use xlink:href="#b" x="3.996" y="26.027"/><use xlink:href="#3"/><use xlink:href="#4" y="2.171"/><use xlink:href="#5" y="4.342"/><use xlink:href="#6" y="6.513"/><use xlink:href="#7" y="8.684"/><use xlink:href="#17" y="13.026"/><use xlink:href="#6" y="15.197"/><use xlink:href="#4" y="17.368"/><use xlink:href="#7" y="19.539"/><use xlink:href="#5" y="21.71"/><use xlink:href="#9" y="26.052"/></svg><svg x="3060"><use xlink:href="#a"/><use xlink:href="#b" x="4.996" y="26.027"/><use xlink:href="#3"/><use xlink:href="#4" y="2.171"/><use xlink:href="#5" y="4.342"/><use xlink:href="#6" y="6.513"/><use xlink:href="#7" y="8.684"/><use xlink:href="#17" y="13.026"/><use xlink:href="#6" y="15.197"/><use xlink:href="#4" y="17.368"/><use xlink:href="#7" y="19.539"/><use xlink:href="#5" y="21.71"/><use xlink:href="#10" y="26.052"/></svg><svg x="3120"><use xlink:href="#a"/><use xlink:href="#b" x="5.996" y="26.027"/><use xlink:href="#3"/><use xlink:href="#4" y="2.171"/><use xlink:href="#5" y="4.342"/><use xlink:href="#6" y="6.513"/><use xlink:href="#7" y="8.684"/><use xlink:href="#17" y="13.026"/><use xlink:href="#6" y="15.197"/><use xlink:href="#4" y="17.368"/><use xlink:href="#7" y="19.539"/><use xlink:href="#5" y="21.71"/><use xlink:href="#11" y="26.052"/></svg><svg x="3180"><use xlink:href="#a"/><use xlink:href="#b" x="6.996" y="26.027"/><use xlink:href="#3"/><use xlink:href="#4" y="2.171"/><use xlink:href="#5" y="4.342"/><use xlink:href="#6" y="6.513"/><use xlink:href="#7" y="8.684"/><use xlink:href="#17" y="13.026"/><use xlink:href="#6" y="15.197"/><use xlink:href="#4" y="17.368"/><use xlink:href="#7" y="19.539"/><use xlink:href="#5" y="21.71"/><use xlink:href="#11" y="26.052"/></svg><svg x="3240"><use xlink:href="#a"/><use xlink:href="#b" x="7.996" y="26.027"/><use xlink:href="#3"/><use xlink:href="#4" y="2.171"/><use xlink:href="#5" y="4.342"/><use xlink:href="#6" y="6.513"/><use xlink:href="#7" y="8.684"/><use xlink:href="#17" y="13.026"/><use xlink:href="#6" y="15.197"/><use xlink:href="#4" y="17.368"/><use xlink:href="#7" y="19.539"/><use xlink:href="#5" y="21.71"/><use xlink:href="#12" y="26.052"/></svg><svg x="3300"><use xlink:href="#a"/><use xlink:href="#b" x="8.996" y="26.027"/><use xlink:href="#3"/><use xlink:href="#4" y="2.171"/><use xlink:href="#5" y="4.342"/><use xlink:href="#6" y="6.513"/><use xlink:href="#7" y="8.684"/><use xlink:href="#17" y="13.026"/><use xlink:href="#6" y="15.197"/><use xlink:href="#4" y="17.368"/><use xlink:href="#7" y="19.539"/><use xlink:href="#5" y="21.71"/><use xlink:href="#13" y="26.052"/></svg><svg x="3360"><use xlink:href="#a"/><use xlink:href="#b" x="9.996" y="26.027"/><use xlink:href="#3"/><use xlink:href="#4" y="2.171"/><use xlink:href="#5" y="4.342"/><use xlink:href="#6" y="6.513"/><use xlink:href="#7" y="8.684"/><use xlink:href="#17" y="13.026"/><use xlink:href="#6" y="15.197"/><use xlink:href="#4" y="17.368"/><use xlink:href="#7" y="19.539"/><use xlink:href="#5" y="21.71"/><use xlink:href="#13" y="26.052"/></svg><svg x="3420"><use xlink:href="#a"/><use xlink:href="#b" x="10.996" y="26.027"/><use xlink:href="#3"/><use xlink:href="#4" y="2.171"/><use xlink:href="#5" y="4.342"/><use xlink:href="#6" y="6.513"/><use xlink:href="#7" y="8.684"/><use xlink:href="#17" y="13.026"/><use xlink:href="#6" y="15.197"/><use xlink:href="#4" y="17.368"/><use xlink:href="#7" y="19.539"/><use xlink:href="#5" y="21.71"/><use xlink:href="#18" y="26.052"/></svg><svg x="3480"><use xlink:href="#a"/><use xlink:href="#b" x="11.996" y="26.027"/><use xlink:href="#3"/><use xlink:href="#4" y="2.171"/><use xlink:href="#5" y="4.342"/><use xlink:href="#6" y="6.513"/><use xlink:href="#7" y="8.684"/><use xlink:href="#17" y="13.026"/><use xlink:href="#6" y="15.197"/><use xlink:href="#4" y="17.368"/><use xlink:href="#7" y="19.539"/><use xlink:href="#5" y="21.71"/><use xlink:href="#18" y="26.052"/></svg><svg x="3540"><use xlink:href="#a"/><use xlink:href="#b" x="12.996" y="26.027"/><use xlink:href="#3"/><use xlink:href="#4" y="2.171"/><use xlink:href="#5" y="4.342"/><use xlink:href="#6" y="6.513"/><use xlink:href="#7" y="8.684"/><use xlink:href="#17" y="13.026"/><use xlink:href="#6" y="15.197"/><use xlink:href="#4" y="17.368"/><use xlink:href="#7" y="19.539"/><use xlink:href="#5" y="21.71"/><text font-size="1.67" y="27.722" class="c">▶</text><text font-size="1.67" x="2.004" y="27.722" class="c">sort</text><text font-size="1.67" x="7.014" y="27.722" class="c">-k</text><text font-size="1.67" x="10.02" y="27.722" class="c">3</text><text font-size="1.67" x="12.024" y="27.722" class="c">-</text></svg><svg x="3600"><use xlink:href="#a"/><use xlink:href="#b" x="13.996" y="26.027"/><use xlink:href="#3"/><use xlink:href="#4" y="2.171"/><use xlink:href="#5" y="4.342"/><use xlink:href="#6" y="6.513"/><use xlink:href="#7" y="8.684"/><use xlink:href="#17" y="13.026"/><use xlink:href="#6" y="15.197"/><use xlink:href="#4" y="17.368"/><use xlink:href="#7" y="19.539"/><use xlink:href="#5" y="21.71"/><use xlink:href="#19" y="26.052"/></svg><svg x="3660"><use xlink:href="#a"/><use xlink:href="#b" x="14.996" y="26.027"/><use xlink:href="#3"/><use xlink:href="#4" y="2.171"/><use xlink:href="#5" y="4.342"/><use xlink:href="#6" y="6.513"/><use xlink:href="#7" y="8.684"/><use xlink:href="#17" y="13.026"/><use xlink:href="#6" y="15.197"/><use xlink:href="#4" y="17.368"/><use xlink:href="#7" y="19.539"/><use xlink:href="#5" y="21.71"/><use xlink:href="#19" y="26.052"/></svg><svg x="3720"><use xlink:href="#a"/><use xlink:href="#b" x="15.996" y="26.027"/><use xlink:href="#3"/><use xlink:href="#4" y="2.171"/><use xlink:href="#5" y="4.342"/><use xlink:href="#6" y="6.513"/><use xlink:href="#7" y="8.684"/><use xlink:href="#17" y="13.026"/><use xlink:href="#6" y="15.197"/><use xlink:href="#4" y="17.368"/><use xlink:href="#7" y="19.539"/><use xlink:href="#5" y="21.71"/><use xlink:href="#20" y="26.052"/></svg><svg x="3780"><use xlink:href="#a"/><use xlink:href="#b" x="16.996" y="26.027"/><use xlink:href="#3"/><use xlink:href="#4" y="2.171"/><use xlink:href="#5" y="4.342"/><use xlink:href="#6" y="6.513"/><use xlink:href="#7" y="8.684"/><use xlink:href="#17" y="13.026"/><use xlink:href="#6" y="15.197"/><use xlink:href="#4" y="17.368"/><use xlink:href="#7" y="19.539"/><use xlink:href="#5" y="21.71"/><use xlink:href="#20" y="26.052"/></svg><svg x="3840"><use xlink:href="#a"/><use xlink:href="#b" x="17.996" y="26.027"/><use xlink:href="#3"/><use xlink:href="#4" y="2.171"/><use xlink:href="#5" y="4.342"/><use xlink:href="#6" y="6.513"/><use xlink:href="#7" y="8.684"/><use xlink:href="#17" y="13.026"/><use xlink:href="#6" y="15.197"/><use xlink:href="#4" y="17.368"/><use xlink:href="#7" y="19.539"/><use xlink:href="#5" y="21.71"/><text font-size="1.67" y="27.722" class="c">▶</text><text font-size="1.67" x="2.004" y="27.722" class="c">sort</text><text font-size="1.67" x="7.014" y="27.722" class="c">-k</text><text font-size="1.67" x="10.02" y="27.722" class="c">3</text><text font-size="1.67" x="12.024" y="27.722" class="c">-t</text><text font-size="1.67" x="15.03" y="27.722" class="c">,</text><text font-size="1.67" x="17.034" y="27.722" class="c">-</text></svg><svg x="3900"><use xlink:href="#a"/><use xlink:href="#b" x="18.996" y="26.027"/><use xlink:href="#3"/><use xlink:href="#4" y="2.171"/><use xlink:href="#5" y="4.342"/><use xlink:href="#6" y="6.513"/><use xlink:href="#7" y="8.684"/><use xlink:href="#17" y="13.026"/><use xlink:href="#6" y="15.197"/><use xlink:href="#4" y="17.368"/><use xlink:href="#7" y="19.539"/><use xlink:href="#5" y="21.71"/><use xlink:href="#21" y="26.052"/></svg><svg x="3960"><use xlink:href="#a"/><use xlink:href="#b" x="19.996" y="26.027"/><use xlink:href="#3"/><use xlink:href="#4" y="2.171"/><use xlink:href="#5" y="4.342"/><use xlink:href="#6" y="6.513"/><use xlink:href="#7" y="8.684"/><use xlink:href="#17" y="13.026"/><use xlink:href="#6" y="15.197"/><use xlink:href="#4" y="17.368"/><use xlink:href="#7" y="19.539"/><use xlink:href="#5" y="21.71"/><use xlink:href="#21" y="26.052"/></svg><svg x="4020"><use xlink:href="#a"/><use xlink:href="#b" x="20.996" y="26.027"/><use xlink:href="#3"/><use xlink:href="#4" y="2.171"/><use xlink:href="#5" y="4.342"/><use xlink:href="#6" y="6.513"/><use xlink:href="#7" y="8.684"/><use xlink:href="#17" y="13.026"/><use xlink:href="#6" y="15.197"/><use xlink:href="#4" y="17.368"/><use xlink:href="#7" y="19.539"/><use xlink:href="#5" y="21.71"/><text font-size="1.67" y="27.722" class="c">▶</text><text font-size="1.67" x="2.004" y="27.722" class="c">sort</text><text font-size="1.67" x="7.014" y="27.722" class="c">-k</text><text font-size="1.67" x="10.02" y="27.722" class="c">3</text><text font-size="1.67" x="12.024" y="27.722" class="c">-t</text><text font-size="1.67" x="15.03" y="27.722" class="c">,</text><text font-size="1.67" x="17.034" y="27.722" class="c">-n</text><text font-size="1.67" x="20.04" y="27.722" class="c">-</text></svg><svg x="4080"><use xlink:href="#a"/><use xlink:href="#b" x="21.996" y="26.027"/><use xlink:href="#3"/><use xlink:href="#4" y="2.171"/><use xlink:href="#5" y="4.342"/><use xlink:href="#6" y="6.513"/><use xlink:href="#7" y="8.684"/><use xlink:href="#17" y="13.026"/><use xlink:href="#6" y="15.197"/><use xlink:href="#4" y="17.368"/><use xlink:href="#7" y="19.539"/><use xlink:href="#5" y="21.71"/><use xlink:href="#22" y="26.052"/></svg><svg x="4140"><use xlink:href="#a"/><use xlink:href="#b" x="22.996" y="26.027"/><use xlink:href="#3"/><use xlink:href="#4" y="2.171"/><use xlink:href="#5" y="4.342"/><use xlink:href="#6" y="6.513"/><use xlink:href="#7" y="8.684"/><use xlink:href="#17" y="13.026"/><use xlink:href="#6" y="15.197"/><use xlink:href="#4" y="17.368"/><use xlink:href="#7" y="19.539"/><use xlink:href="#5" y="21.71"/><use xlink:href="#22" y="26.052"/></svg><svg x="4200"><use xlink:href="#a"/><use xlink:href="#b" x="23.996" y="26.027"/><use xlink:href="#3"/><use xlink:href="#4" y="2.171"/><use xlink:href="#5" y="4.342"/><use xlink:href="#6" y="6.513"/><use xlink:href="#7" y="8.684"/><use xlink:href="#17" y="13.026"/><use xlink:href="#6" y="15.197"/><use xlink:href="#4" y="17.368"/><use xlink:href="#7" y="19.539"/><use xlink:href="#5" y="21.71"/><use xlink:href="#22" y="26.052"/></svg><svg x="4260"><use xlink:href="#a"/><use xlink:href="#b" x="24.996" y="26.027"/><use xlink:href="#3"/><use xlink:href="#4" y="2.171"/><use xlink:href="#5" y="4.342"/><use xlink:href="#6" y="6.513"/><use xlink:href="#7" y="8.684"/><use xlink:href="#17" y="13.026"/><use xlink:href="#6" y="15.197"/><use xlink:href="#4" y="17.368"/><use xlink:href="#7" y="19.539"/><use xlink:href="#5" y="21.71"/><text font-size="1.67" y="27.722" class="c">▶</text><text font-size="1.67" x="2.004" y="27.722" class="c">sort</text><text font-size="1.67" x="7.014" y="27.722" class="c">-k</text><text font-size="1.67" x="10.02" y="27.722" class="c">3</text><text font-size="1.67" x="12.024" y="27.722" class="c">-t</text><text font-size="1.67" x="15.03" y="27.722" class="c">,</text><text font-size="1.67" x="17.034" y="27.722" class="c">-n</text><text font-size="1.67" x="20.04" y="27.722" class="c">-r</text><text font-size="1.67" x="24.048" y="27.722" class="c">c</text></svg><svg x="4320"><use xlink:href="#a"/><use xlink:href="#b" x="25.996" y="26.027"/><use xlink:href="#3"/><use xlink:href="#4" y="2.171"/><use xlink:href="#5" y="4.342"/><use xlink:href="#6" y="6.513"/><use xlink:href="#7" y="8.684"/><use xlink:href="#17" y="13.026"/><use xlink:href="#6" y="15.197"/><use xlink:href="#4" y="17.368"/><use xlink:href="#7" y="19.539"/><use xlink:href="#5" y="21.71"/><text font-size="1.67" y="27.722" class="c">▶</text><text font-size="1.67" x="2.004" y="27.722" class="c">sort</text><text font-size="1.67" x="7.014" y="27.722" class="c">-k</text><text font-size="1.67" x="10.02" y="27.722" class="c">3</text><text font-size="1.67" x="12.024" y="27.722" class="c">-t</text><text font-size="1.67" x="15.03" y="27.722" class="c">,</text><text font-size="1.67" x="17.034" y="27.722" class="c">-n</text><text font-size="1.67" x="20.04" y="27.722" class="c">-r</text><text font-size="1.67" x="24.048" y="27.722" class="c">ch</text></svg><svg x="4380"><use xlink:href="#a"/><use xlink:href="#b" x="26.996" y="26.027"/><use xlink:href="#3"/><use xlink:href="#4" y="2.171"/><use xlink:href="#5" y="4.342"/><use xlink:href="#6" y="6.513"/><use xlink:href="#7" y="8.684"/><use xlink:href="#17" y="13.026"/><use xlink:href="#6" y="15.197"/><use xlink:href="#4" y="17.368"/><use xlink:href="#7" y="19.539"/><use xlink:href="#5" y="21.71"/><text font-size="1.67" y="27.722" class="c">▶</text><text font-size="1.67" x="2.004" y="27.722" class="c">sort</text><text font-size="1.67" x="7.014" y="27.722" class="c">-k</text><text font-size="1.67" x="10.02" y="27.722" class="c">3</text><text font-size="1.67" x="12.024" y="27.722" class="c">-t</text><text font-size="1.67" x="15.03" y="27.722" class="c">,</text><text font-size="1.67" x="17.034" y="27.722" class="c">-n</text><text font-size="1.67" x="20.04" y="27.722" class="c">-r</text><text font-size="1.67" x="24.048" y="27.722" class="c">che</text></svg><svg x="4440"><use xlink:href="#a"/><use xlink:href="#b" x="27.996" y="26.027"/><use xlink:href="#3"/><use xlink:href="#4" y="2.171"/><use xlink:href="#5" y="4.342"/><use xlink:href="#6" y="6.513"/><use xlink:href="#7" y="8.684"/><use xlink:href="#17" y="13.026"/><use xlink:href="#6" y="15.197"/><use xlink:href="#4" y="17.368"/><use xlink:href="#7" y="19.539"/><use xlink:href="#5" y="21.71"/><text font-size="1.67" y="27.722" class="c">▶</text><text font-size="1.67" x="2.004" y="27.722" class="c">sort</text><text font-size="1.67" x="7.014" y="27.722" class="c">-k</text><text font-size="1.67" x="10.02" y="27.722" class="c">3</text><text font-size="1.67" x="12.024" y="27.722" class="c">-t</text><text font-size="1.67" x="15.03" y="27.722" class="c">,</text><text font-size="1.67" x="17.034" y="27.722" class="c">-n</text><text font-size="1.67" x="20.04" y="27.722" class="c">-r</text><text font-size="1.67" x="24.048" y="27.722" class="c">chee</text></svg><svg x="4500"><use xlink:href="#a"/><use xlink:href="#b" x="28.996" y="26.027"/><use xlink:href="#3"/><use xlink:href="#4" y="2.171"/><use xlink:href="#5" y="4.342"/><use xlink:href="#6" y="6.513"/><use xlink:href="#7" y="8.684"/><use xlink:href="#17" y="13.026"/><use xlink:href="#6" y="15.197"/><use xlink:href="#4" y="17.368"/><use xlink:href="#7" y="19.539"/><use xlink:href="#5" y="21.71"/><text font-size="1.67" y="27.722" class="c">▶</text><text font-size="1.67" x="2.004" y="27.722" class="c">sort</text><text font-size="1.67" x="7.014" y="27.722" class="c">-k</text><text font-size="1.67" x="10.02" y="27.722" class="c">3</text><text font-size="1.67" x="12.024" y="27.722" class="c">-t</text><text font-size="1.67" x="15.03" y="27.722" class="c">,</text><text font-size="1.67" x="17.034" y="27.722" class="c">-n</text><text font-size="1.67" x="20.04" y="27.722" class="c">-r</text><text font-size="1.67" x="24.048" y="27.722" class="c">chees</text></svg><svg x="4560"><use xlink:href="#a"/><use xlink:href="#b" x="29.996" y="26.027"/><use xlink:href="#3"/><use xlink:href="#4" y="2.171"/><use xlink:href="#5" y="4.342"/><use xlink:href="#6" y="6.513"/><use xlink:href="#7" y="8.684"/><use xlink:href="#17" y="13.026"/><use xlink:href="#6" y="15.197"/><use xlink:href="#4" y="17.368"/><use xlink:href="#7" y="19.539"/><use xlink:href="#5" y="21.71"/><text font-size="1.67" y="27.722" class="c">▶</text><text font-size="1.67" x="2.004" y="27.722" class="c">sort</text><text font-size="1.67" x="7.014" y="27.722" class="c">-k</text><text font-size="1.67" x="10.02" y="27.722" class="c">3</text><text font-size="1.67" x="12.024" y="27.722" class="c">-t</text><text font-size="1.67" x="15.03" y="27.722" class="c">,</text><text font-size="1.67" x="17.034" y="27.722" class="c">-n</text><text font-size="1.67" x="20.04" y="27.722" class="c">-r</text><text font-size="1.67" x="24.048" y="27.722" class="c">cheese</text></svg><svg x="4620"><use xlink:href="#a"/><use xlink:href="#b" x="30.996" y="26.027"/><use xlink:href="#3"/><use xlink:href="#4" y="2.171"/><use xlink:href="#5" y="4.342"/><use xlink:href="#6" y="6.513"/><use xlink:href="#7" y="8.684"/><use xlink:href="#17" y="13.026"/><use xlink:href="#6" y="15.197"/><use xlink:href="#4" y="17.368"/><use xlink:href="#7" y="19.539"/><use xlink:href="#5" y="21.71"/><text font-size="1.67" y="27.722" class="c">▶</text><text font-size="1.67" x="2.004" y="27.722" class="c">sort</text><text font-size="1.67" x="7.014" y="27.722" class="c">-k</text><text font-size="1.67" x="10.02" y="27.722" class="c">3</text><text font-size="1.67" x="12.024" y="27.722" class="c">-t</text><text font-size="1.67" x="15.03" y="27.722" class="c">,</text><text font-size="1.67" x="17.034" y="27.722" class="c">-n</text><text font-size="1.67" x="20.04" y="27.722" class="c">-r</text><text font-size="1.67" x="24.048" y="27.722" class="c">cheese.</text></svg><svg x="4680"><use xlink:href="#a"/><use xlink:href="#b" x="31.996" y="26.027"/><use xlink:href="#3"/><use xlink:href="#4" y="2.171"/><use xlink:href="#5" y="4.342"/><use xlink:href="#6" y="6.513"/><use xlink:href="#7" y="8.684"/><use xlink:href="#17" y="13.026"/><use xlink:href="#6" y="15.197"/><use xlink:href="#4" y="17.368"/><use xlink:href="#7" y="19.539"/><use xlink:href="#5" y="21.71"/><text font-size="1.67" y="27.722" class="c">▶</text><text font-size="1.67" x="2.004" y="27.722" class="c">sort</text><text font-size="1.67" x="7.014" y="27.722" class="c">-k</text><text font-size="1.67" x="10.02" y="27.722" class="c">3</text><text font-size="1.67" x="12.024" y="27.722" class="c">-t</text><text font-size="1.67" x="15.03" y="27.722" class="c">,</text><text font-size="1.67" x="17.034" y="27.722" class="c">-n</text><text font-size="1.67" x="20.04" y="27.722" class="c">-r</text><text font-size="1.67" x="24.048" y="27.722" class="c">cheese.c</text></svg><svg x="4740"><use xlink:href="#a"/><use xlink:href="#b" x="32.996" y="26.027"/><use xlink:href="#3"/><use xlink:href="#4" y="2.171"/><use xlink:href="#5" y="4.342"/><use xlink:href="#6" y="6.513"/><use xlink:href="#7" y="8.684"/><use xlink:href="#17" y="13.026"/><use xlink:href="#6" y="15.197"/><use xlink:href="#4" y="17.368"/><use xlink:href="#7" y="19.539"/><use xlink:href="#5" y="21.71"/><text font-size="1.67" y="27.722" class="c">▶</text><text font-size="1.67" x="2.004" y="27.722" class="c">sort</text><text font-size="1.67" x="7.014" y="27.722" class="c">-k</text><text font-size="1.67" x="10.02" y="27.722" class="c">3</text><text font-size="1.67" x="12.024" y="27.722" class="c">-t</text><text font-size="1.67" x="15.03" y="27.722" class="c">,</text><text font-size="1.67" x="17.034" y="27.722" class="c">-n</text><text font-size="1.67" x="20.04" y="27.722" class="c">-r</text><text font-size="1.67" x="24.048" y="27.722" class="c">cheese.cs</text></svg><svg x="4800"><use xlink:href="#a"/><use xlink:href="#b" x="33.996" y="26.027"/><use xlink:href="#3"/><use xlink:href="#4" y="2.171"/><use xlink:href="#5" y="4.342"/><use xlink:href="#6" y="6.513"/><use xlink:href="#7" y="8.684"/><use xlink:href="#17" y="13.026"/><use xlink:href="#6" y="15.197"/><use xlink:href="#4" y="17.368"/><use xlink:href="#7" y="19.539"/><use xlink:href="#5" y="21.71"/><use xlink:href="#23" y="26.052"/></svg><svg x="4860"><use xlink:href="#a"/><use xlink:href="#b" x="-.004" y="28.198"/><use xlink:href="#3"/><use xlink:href="#4" y="2.171"/><use xlink:href="#5" y="4.342"/><use xlink:href="#6" y="6.513"/><use xlink:href="#7" y="8.684"/><use xlink:href="#17" y="13.026"/><use xlink:href="#6" y="15.197"/><use xlink:href="#4" y="17.368"/><use xlink:href="#7" y="19.539"/><use xlink:href="#5" y="21.71"/><use xlink:href="#23" y="26.052"/></svg><svg x="4920"><use xlink:href="#a"/><use xlink:href="#b" x="-.004" y="32.54"/><use xlink:href="#5"/><use xlink:href="#6" y="2.171"/><use xlink:href="#7" y="4.342"/><use xlink:href="#17" y="8.684"/><use xlink:href="#6" y="10.855"/><use xlink:href="#4" y="13.026"/><use xlink:href="#7" y="15.197"/><use xlink:href="#5" y="17.368"/><use xlink:href="#23" y="21.71"/><use xlink:href="#6" y="23.881"/><use xlink:href="#5" y="26.052"/><use xlink:href="#7" y="28.223"/><use xlink:href="#4" y="30.394"/></svg><svg x="4980"><use xlink:href="#a"/><use xlink:href="#b" x="-.004" y="32.54"/><use xlink:href="#6"/><use xlink:href="#7" y="2.171"/><use xlink:href="#17" y="6.513"/><use xlink:href="#6" y="8.684"/><use xlink:href="#4" y="10.855"/><use xlink:href="#7" y="13.026"/><use xlink:href="#5" y="15.197"/><use xlink:href="#23" y="19.539"/><use xlink:href="#6" y="21.71"/><use xlink:href="#5" y="23.881"/><use xlink:href="#7" y="26.052"/><use xlink:href="#4" y="28.223"/></svg><svg x="5040"><use xlink:href="#a"/><use xlink:href="#b" x="1.996" y="32.54"/><use xlink:href="#6"/><use xlink:href="#7" y="2.171"/><use xlink:href="#17" y="6.513"/><use xlink:href="#6" y="8.684"/><use xlink:href="#4" y="10.855"/><use xlink:href="#7" y="13.026"/><use xlink:href="#5" y="15.197"/><use xlink:href="#23" y="19.539"/><use xlink:href="#6" y="21.71"/><use xlink:href="#5" y="23.881"/><use xlink:href="#7" y="26.052"/><use xlink:href="#4" y="28.223"/><use xlink:href="#1" y="32.565"/></svg><svg x="5100"><use xlink:href="#a"/><use xlink:href="#b" x="-.004" y="32.54"/><use xlink:href="#7"/><use xlink:href="#17" y="4.342"/><use xlink:href="#6" y="6.513"/><use xlink:href="#4" y="8.684"/><use xlink:href="#7" y="10.855"/><use xlink:href="#5" y="13.026"/><use xlink:href="#23" y="17.368"/><use xlink:href="#6" y="19.539"/><use xlink:href="#5" y="21.71"/><use xlink:href="#7" y="23.881"/><use xlink:href="#4" y="26.052"/><use xlink:href="#1" y="30.394"/></svg></svg></g></g></svg></svg>