<svg xmlns="http://www.w3.org/2000/svg" xmlns:xlink="http://www.w3.org/1999/xlink" width="620" height="345.65"><rect width="620" height="345.65" rx="0" ry="0" class="a"/><svg height="325.65" viewBox="0 0 60 32.565" width="600" x="10" xmlns="http://www.w3.org/2000/svg" xmlns:xlink="http://www.w3.org/1999/xlink" y="10"><style>@keyframes f{0%{transform:translateX(0)}.1%{transform:translateX(-60px)}11.4%{transform:translateX(-120px)}13.5%{transform:translateX(-180px)}14.5%{transform:translateX(-240px)}15.5%{transform:translateX(-300px)}16.5%{transform:translateX(-360px)}17.6%{transform:translateX(-420px)}18.6%{transform:translateX(-480px)}19.6%{transform:translateX(-540px)}20.6%{transform:translateX(-600px)}21.6%{transform:translateX(-660px)}23.7%{transform:translateX(-720px)}24.7%{transform:translateX(-780px)}25.7%{transform:translateX(-840px)}26.8%{transform:translateX(-900px)}27.8%{transform:translateX(-960px)}33.5%{transform:translateX(-1020px)}33.6%{transform:translateX(-1200px)}47.1%{transform:translateX(-1260px)}48.1%{transform:translateX(-1320px)}49.1%{transform:translateX(-1380px)}50.1%{transform:translateX(-1440px)}51.1%{transform:translateX(-1500px)}52.2%{transform:translateX(-1560px)}53.2%{transform:translateX(-1620px)}54.2%{transform:translateX(-1680px)}57.3%{transform:translateX(-1740px)}58.3%{transform:translateX(-1800px)}59.3%{transform:translateX(-1860px)}60.3%{transform:translateX(-1920px)}61.4%{transform:translateX(-1980px)}62.4%{transform:translateX(-2040px)}63.4%{transform:translateX(-2100px)}64.4%{transform:translateX(-2160px)}65.5%{transform:translateX(-2220px)}68.5%{transform:translateX(-2280px)}69.5%{transform:translateX(-2340px)}75.2%{transform:translateX(-2400px)}75.3%{transform:translateX(-2460px)}77.3%{transform:translateX(-2580px)}to{transform:translateX(-2640px)}}.a{fill:#1e1e2e}.c{fill:#cdd6f4;white-space:pre}</style><g font-family="Monaco,Consolas,Menlo,'Bitstream Vera Sans Mono','Powerline Symbols',monospace" font-size="1.67"><defs><symbol id="1"><text font-size="1.67" y="1.67" class="c">▶</text></symbol><symbol id="2"><text font-size="1.67" y="1.67" class="c">▶</text><text font-size="1.67" x="2.004" y="1.67" class="c">cat</text></symbol><symbol id="3"><text font-size="1.67" y="1.67" class="c">▶</text><text font-size="1.67" x="2.004" y="1.67" class="c">cat</text><text font-size="1.67" x="6.012" y="1.67" class="c">clothes.txt</text></symbol><symbol id="4"><text font-size="1.67" y="1.67" class="c">3.</text><text font-size="1.67" x="3.006" y="1.67" class="c">Brown</text><text font-size="1.67" x="9.018" y="1.67" class="c">shoes</text></symbol><symbol id="5"><text font-size="1.67" y="1.67" class="c">5.</text><text font-size="1.67" x="3.006" y="1.67" class="c">Blue</text><text font-size="1.67" x="8.016" y="1.67" class="c">tie</text></symbol><symbol id="6"><text font-size="1.67" y="1.67" class="c">1.</text><text font-size="1.67" x="3.006" y="1.67" class="c">White</text><text font-size="1.67" x="9.018" y="1.67" class="c">shirt</text></symbol><symbol id="7"><text font-size="1.67" y="1.67" class="c">11.</text><text font-size="1.67" x="4.008" y="1.67" class="c">Jeans</text></symbol><symbol id="8"><text font-size="1.67" y="1.67" class="c">4.</text><text font-size="1.67" x="3.006" y="1.67" class="c">Underpants</text></symbol><symbol id="9"><text font-size="1.67" y="1.67" class="c">▶</text><text font-size="1.67" x="2.004" y="1.67" class="c">sort</text></symbol><symbol id="10"><text font-size="1.67" y="1.67" class="c">▶</text><text font-size="1.67" x="2.004" y="1.67" class="c">sort</text><text font-size="1.67" x="7.014" y="1.67" class="c">-n</text></symbol><symbol id="11"><text font-size="1.67" y="1.67" class="c">▶</text><text font-size="1.67" x="2.004" y="1.67" class="c">sort</text><text font-size="1.67" x="7.014" y="1.67" class="c">-n</text><text font-size="1.67" x="10.02" y="1.67" class="c">clothes.txt</text></symbol><symbol id="a"><path fill="transparent" d="M0 0h60v16H0z"/></symbol><symbol id="b"><path fill="#f5e0dc" d="M0 0h1.102v2.171H0z"/></symbol></defs><path class="a" d="M0 0h60v32.565H0z"/><g style="animation-duration:8.828928000000001s;animation-iteration-count:infinite;animation-name:f;animation-timing-function:steps(1,end)"><svg width="2700"><svg><use xlink:href="#a"/><use xlink:href="#b" x="-.004"/></svg><svg x="60"><use xlink:href="#a"/><use xlink:href="#b" x="1.996"/><use xlink:href="#1"/></svg><svg x="120"><use xlink:href="#a"/><use xlink:href="#b" x="2.996"/><text font-size="1.67" y="1.67" class="c">▶</text><text font-size="1.67" x="2.004" y="1.67" class="c">c</text></svg><svg x="180"><use xlink:href="#a"/><use xlink:href="#b" x="3.996"/><text font-size="1.67" y="1.67" class="c">▶</text><text font-size="1.67" x="2.004" y="1.67" class="c">ca</text></svg><svg x="240"><use xlink:href="#a"/><use xlink:href="#b" x="4.996"/><use xlink:href="#2"/></svg><svg x="300"><use xlink:href="#a"/><use xlink:href="#b" x="5.996"/><use xlink:href="#2"/></svg><svg x="360"><use xlink:href="#a"/><use xlink:href="#b" x="6.996"/><text font-size="1.67" y="1.67" class="c">▶</text><text font-size="1.67" x="2.004" y="1.67" class="c">cat</text><text font-size="1.67" x="6.012" y="1.67" class="c">c</text></svg><svg x="420"><use xlink:href="#a"/><use xlink:href="#b" x="7.996"/><text font-size="1.67" y="1.67" class="c">▶</text><text font-size="1.67" x="2.004" y="1.67" class="c">cat</text><text font-size="1.67" x="6.012" y="1.67" class="c">cl</text></svg><svg x="480"><use xlink:href="#a"/><use xlink:href="#b" x="8.996"/><text font-size="1.67" y="1.67" class="c">▶</text><text font-size="1.67" x="2.004" y="1.67" class="c">cat</text><text font-size="1.67" x="6.012" y="1.67" class="c">clo</text></svg><svg x="540"><use xlink:href="#a"/><use xlink:href="#b" x="9.996"/><text font-size="1.67" y="1.67" class="c">▶</text><text font-size="1.67" x="2.004" y="1.67" class="c">cat</text><text font-size="1.67" x="6.012" y="1.67" class="c">clot</text></svg><svg x="600"><use xlink:href="#a"/><use xlink:href="#b" x="10.996"/><text font-size="1.67" y="1.67" class="c">▶</text><text font-size="1.67" x="2.004" y="1.67" class="c">cat</text><text font-size="1.67" x="6.012" y="1.67" class="c">cloth</text></svg><svg x="660"><use xlink:href="#a"/><use xlink:href="#b" x="11.996"/><text font-size="1.67" y="1.67" class="c">▶</text><text font-size="1.67" x="2.004" y="1.67" class="c">cat</text><text font-size="1.67" x="6.012" y="1.67" class="c">clothe</text></svg><svg x="720"><use xlink:href="#a"/><use xlink:href="#b" x="12.996"/><text font-size="1.67" y="1.67" class="c">▶</text><text font-size="1.67" x="2.004" y="1.67" class="c">cat</text><text font-size="1.67" x="6.012" y="1.67" class="c">clothes</text></svg><svg x="780"><use xlink:href="#a"/><use xlink:href="#b" x="13.996"/><text font-size="1.67" y="1.67" class="c">▶</text><text font-size="1.67" x="2.004" y="1.67" class="c">cat</text><text font-size="1.67" x="6.012" y="1.67" class="c">clothes.</text></svg><svg x="840"><use xlink:href="#a"/><use xlink:href="#b" x="14.996"/><text font-size="1.67" y="1.67" class="c">▶</text><text font-size="1.67" x="2.004" y="1.67" class="c">cat</text><text font-size="1.67" x="6.012" y="1.67" class="c">clothes.t</text></svg><svg x="900"><use xlink:href="#a"/><use xlink:href="#b" x="15.996"/><text font-size="1.67" y="1.67" class="c">▶</text><text font-size="1.67" x="2.004" y="1.67" class="c">cat</text><text font-size="1.67" x="6.012" y="1.67" class="c">clothes.tx</text></svg><svg x="960"><use xlink:href="#a"/><use xlink:href="#b" x="16.996"/><use xlink:href="#3"/></svg><svg x="1020"><use xlink:href="#a"/><use xlink:href="#b" x="-.004" y="2.146"/><use xlink:href="#3"/></svg><svg x="1080"><use xlink:href="#a"/><use xlink:href="#b" x="-.004" y="13.001"/><use xlink:href="#3"/><use xlink:href="#4" y="2.171"/><use xlink:href="#5" y="4.342"/><use xlink:href="#6" y="6.513"/><use xlink:href="#7" y="8.684"/><use xlink:href="#8" y="10.855"/></svg><svg x="1140"><use xlink:href="#a"/><use xlink:href="#b" x="-.004" y="15.172"/><use xlink:href="#3"/><use xlink:href="#4" y="2.171"/><use xlink:href="#5" y="4.342"/><use xlink:href="#6" y="6.513"/><use xlink:href="#7" y="8.684"/><use xlink:href="#8" y="10.855"/></svg><svg x="1200"><use xlink:href="#a"/><use xlink:href="#b" x="1.996" y="15.172"/><use xlink:href="#3"/><use xlink:href="#4" y="2.171"/><use xlink:href="#5" y="4.342"/><use xlink:href="#6" y="6.513"/><use xlink:href="#7" y="8.684"/><use xlink:href="#8" y="10.855"/><use xlink:href="#1" y="15.197"/></svg><svg x="1260"><use xlink:href="#a"/><use xlink:href="#b" x="2.996" y="15.172"/><use xlink:href="#3"/><use xlink:href="#4" y="2.171"/><use xlink:href="#5" y="4.342"/><use xlink:href="#6" y="6.513"/><use xlink:href="#7" y="8.684"/><use xlink:href="#8" y="10.855"/><text font-size="1.67" y="16.867" class="c">▶</text><text font-size="1.67" x="2.004" y="16.867" class="c">s</text></svg><svg x="1320"><use xlink:href="#a"/><use xlink:href="#b" x="3.996" y="15.172"/><use xlink:href="#3"/><use xlink:href="#4" y="2.171"/><use xlink:href="#5" y="4.342"/><use xlink:href="#6" y="6.513"/><use xlink:href="#7" y="8.684"/><use xlink:href="#8" y="10.855"/><text font-size="1.67" y="16.867" class="c">▶</text><text font-size="1.67" x="2.004" y="16.867" class="c">so</text></svg><svg x="1380"><use xlink:href="#a"/><use xlink:href="#b" x="4.996" y="15.172"/><use xlink:href="#3"/><use xlink:href="#4" y="2.171"/><use xlink:href="#5" y="4.342"/><use xlink:href="#6" y="6.513"/><use xlink:href="#7" y="8.684"/><use xlink:href="#8" y="10.855"/><text font-size="1.67" y="16.867" class="c">▶</text><text font-size="1.67" x="2.004" y="16.867" class="c">sor</text></svg><svg x="1440"><use xlink:href="#a"/><use xlink:href="#b" x="5.996" y="15.172"/><use xlink:href="#3"/><use xlink:href="#4" y="2.171"/><use xlink:href="#5" y="4.342"/><use xlink:href="#6" y="6.513"/><use xlink:href="#7" y="8.684"/><use xlink:href="#8" y="10.855"/><use xlink:href="#9" y="15.197"/></svg><svg x="1500"><use xlink:href="#a"/><use xlink:href="#b" x="6.996" y="15.172"/><use xlink:href="#3"/><use xlink:href="#4" y="2.171"/><use xlink:href="#5" y="4.342"/><use xlink:href="#6" y="6.513"/><use xlink:href="#7" y="8.684"/><use xlink:href="#8" y="10.855"/><use xlink:href="#9" y="15.197"/></svg><svg x="1560"><use xlink:href="#a"/><use xlink:href="#b" x="7.996" y="15.172"/><use xlink:href="#3"/><use xlink:href="#4" y="2.171"/><use xlink:href="#5" y="4.342"/><use xlink:href="#6" y="6.513"/><use xlink:href="#7" y="8.684"/><use xlink:href="#8" y="10.855"/><text font-size="1.67" y="16.867" class="c">▶</text><text font-size="1.67" x="2.004" y="16.867" class="c">sort</text><text font-size="1.67" x="7.014" y="16.867" class="c">-</text></svg><svg x="1620"><use xlink:href="#a"/><use xlink:href="#b" x="8.996" y="15.172"/><use xlink:href="#3"/><use xlink:href="#4" y="2.171"/><use xlink:href="#5" y="4.342"/><use xlink:href="#6" y="6.513"/><use xlink:href="#7" y="8.684"/><use xlink:href="#8" y="10.855"/><use xlink:href="#10" y="15.197"/></svg><svg x="1680"><use xlink:href="#a"/><use xlink:href="#b" x="9.996" y="15.172"/><use xlink:href="#3"/><use xlink:href="#4" y="2.171"/><use xlink:href="#5" y="4.342"/><use xlink:href="#6" y="6.513"/><use xlink:href="#7" y="8.684"/><use xlink:href="#8" y="10.855"/><use xlink:href="#10" y="15.197"/></svg><svg x="1740"><use xlink:href="#a"/><use xlink:href="#b" x="10.996" y="15.172"/><use xlink:href="#3"/><use xlink:href="#4" y="2.171"/><use xlink:href="#5" y="4.342"/><use xlink:href="#6" y="6.513"/><use xlink:href="#7" y="8.684"/><use xlink:href="#8" y="10.855"/><text font-size="1.67" y="16.867" class="c">▶</text><text font-size="1.67" x="2.004" y="16.867" class="c">sort</text><text font-size="1.67" x="7.014" y="16.867" class="c">-n</text><text font-size="1.67" x="10.02" y="16.867" class="c">c</text></svg><svg x="1800"><use xlink:href="#a"/><use xlink:href="#b" x="11.996" y="15.172"/><use xlink:href="#3"/><use xlink:href="#4" y="2.171"/><use xlink:href="#5" y="4.342"/><use xlink:href="#6" y="6.513"/><use xlink:href="#7" y="8.684"/><use xlink:href="#8" y="10.855"/><text font-size="1.67" y="16.867" class="c">▶</text><text font-size="1.67" x="2.004" y="16.867" class="c">sort</text><text font-size="1.67" x="7.014" y="16.867" class="c">-n</text><text font-size="1.67" x="10.02" y="16.867" class="c">cl</text></svg><svg x="1860"><use xlink:href="#a"/><use xlink:href="#b" x="12.996" y="15.172"/><use xlink:href="#3"/><use xlink:href="#4" y="2.171"/><use xlink:href="#5" y="4.342"/><use xlink:href="#6" y="6.513"/><use xlink:href="#7" y="8.684"/><use xlink:href="#8" y="10.855"/><text font-size="1.67" y="16.867" class="c">▶</text><text font-size="1.67" x="2.004" y="16.867" class="c">sort</text><text font-size="1.67" x="7.014" y="16.867" class="c">-n</text><text font-size="1.67" x="10.02" y="16.867" class="c">clo</text></svg><svg x="1920"><use xlink:href="#a"/><use xlink:href="#b" x="13.996" y="15.172"/><use xlink:href="#3"/><use xlink:href="#4" y="2.171"/><use xlink:href="#5" y="4.342"/><use xlink:href="#6" y="6.513"/><use xlink:href="#7" y="8.684"/><use xlink:href="#8" y="10.855"/><text font-size="1.67" y="16.867" class="c">▶</text><text font-size="1.67" x="2.004" y="16.867" class="c">sort</text><text font-size="1.67" x="7.014" y="16.867" class="c">-n</text><text font-size="1.67" x="10.02" y="16.867" class="c">clot</text></svg><svg x="1980"><use xlink:href="#a"/><use xlink:href="#b" x="14.996" y="15.172"/><use xlink:href="#3"/><use xlink:href="#4" y="2.171"/><use xlink:href="#5" y="4.342"/><use xlink:href="#6" y="6.513"/><use xlink:href="#7" y="8.684"/><use xlink:href="#8" y="10.855"/><text font-size="1.67" y="16.867" class="c">▶</text><text font-size="1.67" x="2.004" y="16.867" class="c">sort</text><text font-size="1.67" x="7.014" y="16.867" class="c">-n</text><text font-size="1.67" x="10.02" y="16.867" class="c">cloth</text></svg><svg x="2040"><use xlink:href="#a"/><use xlink:href="#b" x="15.996" y="15.172"/><use xlink:href="#3"/><use xlink:href="#4" y="2.171"/><use xlink:href="#5" y="4.342"/><use xlink:href="#6" y="6.513"/><use xlink:href="#7" y="8.684"/><use xlink:href="#8" y="10.855"/><text font-size="1.67" y="16.867" class="c">▶</text><text font-size="1.67" x="2.004" y="16.867" class="c">sort</text><text font-size="1.67" x="7.014" y="16.867" class="c">-n</text><text font-size="1.67" x="10.02" y="16.867" class="c">clothe</text></svg><svg x="2100"><use xlink:href="#a"/><use xlink:href="#b" x="16.996" y="15.172"/><use xlink:href="#3"/><use xlink:href="#4" y="2.171"/><use xlink:href="#5" y="4.342"/><use xlink:href="#6" y="6.513"/><use xlink:href="#7" y="8.684"/><use xlink:href="#8" y="10.855"/><text font-size="1.67" y="16.867" class="c">▶</text><text font-size="1.67" x="2.004" y="16.867" class="c">sort</text><text font-size="1.67" x="7.014" y="16.867" class="c">-n</text><text font-size="1.67" x="10.02" y="16.867" class="c">clothes</text></svg><svg x="2160"><use xlink:href="#a"/><use xlink:href="#b" x="17.996" y="15.172"/><use xlink:href="#3"/><use xlink:href="#4" y="2.171"/><use xlink:href="#5" y="4.342"/><use xlink:href="#6" y="6.513"/><use xlink:href="#7" y="8.684"/><use xlink:href="#8" y="10.855"/><text font-size="1.67" y="16.867" class="c">▶</text><text font-size="1.67" x="2.004" y="16.867" class="c">sort</text><text font-size="1.67" x="7.014" y="16.867" class="c">-n</text><text font-size="1.67" x="10.02" y="16.867" class="c">clothes.</text></svg><svg x="2220"><use xlink:href="#a"/><use xlink:href="#b" x="18.996" y="15.172"/><use xlink:href="#3"/><use xlink:href="#4" y="2.171"/><use xlink:href="#5" y="4.342"/><use xlink:href="#6" y="6.513"/><use xlink:href="#7" y="8.684"/><use xlink:href="#8" y="10.855"/><text font-size="1.67" y="16.867" class="c">▶</text><text font-size="1.67" x="2.004" y="16.867" class="c">sort</text><text font-size="1.67" x="7.014" y="16.867" class="c">-n</text><text font-size="1.67" x="10.02" y="16.867" class="c">clothes.t</text></svg><svg x="2280"><use xlink:href="#a"/><use xlink:href="#b" x="19.996" y="15.172"/><use xlink:href="#3"/><use xlink:href="#4" y="2.171"/><use xlink:href="#5" y="4.342"/><use xlink:href="#6" y="6.513"/><use xlink:href="#7" y="8.684"/><use xlink:href="#8" y="10.855"/><text font-size="1.67" y="16.867" class="c">▶</text><text font-size="1.67" x="2.004" y="16.867" class="c">sort</text><text font-size="1.67" x="7.014" y="16.867" class="c">-n</text><text font-size="1.67" x="10.02" y="16.867" class="c">clothes.tx</text></svg><svg x="2340"><use xlink:href="#a"/><use xlink:href="#b" x="20.996" y="15.172"/><use xlink:href="#3"/><use xlink:href="#4" y="2.171"/><use xlink:href="#5" y="4.342"/><use xlink:href="#6" y="6.513"/><use xlink:href="#7" y="8.684"/><use xlink:href="#8" y="10.855"/><use xlink:href="#11" y="15.197"/></svg><svg x="2400"><use xlink:href="#a"/><use xlink:href="#b" x="-.004" y="17.343"/><use xlink:href="#3"/><use xlink:href="#4" y="2.171"/><use xlink:href="#5" y="4.342"/><use xlink:href="#6" y="6.513"/><use xlink:href="#7" y="8.684"/><use xlink:href="#8" y="10.855"/><use xlink:href="#11" y="15.197"/></svg><svg x="2460"><use xlink:href="#a"/><use xlink:href="#b" x="-.004" y="28.198"/><use xlink:href="#3"/><use xlink:href="#4" y="2.171"/><use xlink:href="#5" y="4.342"/><use xlink:href="#6" y="6.513"/><use xlink:href="#7" y="8.684"/><use xlink:href="#8" y="10.855"/><use xlink:href="#11" y="15.197"/><use xlink:href="#6" y="17.368"/><use xlink:href="#4" y="19.539"/><use xlink:href="#8" y="21.71"/><use xlink:href="#5" y="23.881"/><use xlink:href="#7" y="26.052"/></svg><svg x="2520"><use xlink:href="#a"/><use xlink:href="#b" x="-.004" y="30.369"/><use xlink:href="#3"/><use xlink:href="#4" y="2.171"/><use xlink:href="#5" y="4.342"/><use xlink:href="#6" y="6.513"/><use xlink:href="#7" y="8.684"/><use xlink:href="#8" y="10.855"/><use xlink:href="#11" y="15.197"/><use xlink:href="#6" y="17.368"/><use xlink:href="#4" y="19.539"/><use xlink:href="#8" y="21.71"/><use xlink:href="#5" y="23.881"/><use xlink:href="#7" y="26.052"/></svg><svg x="2580"><use xlink:href="#a"/><use xlink:href="#b" x="1.996" y="30.369"/><use xlink:href="#3"/><use xlink:href="#4" y="2.171"/><use xlink:href="#5" y="4.342"/><use xlink:href="#6" y="6.513"/><use xlink:href="#7" y="8.684"/><use xlink:href="#8" y="10.855"/><use xlink:href="#11" y="15.197"/><use xlink:href="#6" y="17.368"/><use xlink:href="#4" y="19.539"/><use xlink:href="#8" y="21.71"/><use xlink:href="#5" y="23.881"/><use xlink:href="#7" y="26.052"/><use xlink:href="#1" y="30.394"/></svg><svg x="2640"><use xlink:href="#a"/><use xlink:href="#b" x="-.004" y="32.54"/><use xlink:href="#3"/><use xlink:href="#4" y="2.171"/><use xlink:href="#5" y="4.342"/><use xlink:href="#6" y="6.513"/><use xlink:href="#7" y="8.684"/><use xlink:href="#8" y="10.855"/><use xlink:href="#11" y="15.197"/><use xlink:href="#6" y="17.368"/><use xlink:href="#4" y="19.539"/><use xlink:href="#8" y="21.71"/><use xlink:href="#5" y="23.881"/><use xlink:href="#7" y="26.052"/><use xlink:href="#1" y="30.394"/></svg></svg></g></g></svg></svg>