<?xml version="1.0" standalone="no"?>
<!DOCTYPE svg PUBLIC "-//W3C//DTD SVG 20010904//EN"
 "http://www.w3.org/TR/2001/REC-SVG-20010904/DTD/svg10.dtd">
<svg version="1.0" xmlns="http://www.w3.org/2000/svg"
 width="300.000000pt" height="300.000000pt" viewBox="0 0 300.000000 300.000000"
 preserveAspectRatio="xMidYMid meet">
<metadata>
Created by potrace 1.11, written by Peter Selinger 2001-2013
</metadata>
<g transform="translate(0.000000,300.000000) scale(0.100000,-0.100000)"
fill="#000000" stroke="none">
<path d="M1454 2973 c-5 -20 -2 -30 15 -44 19 -16 20 -21 9 -39 -7 -11 -23
-23 -35 -26 -13 -4 -23 -9 -23 -13 0 -25 -161 -64 -174 -43 -7 12 34 43 86 65
27 11 36 20 32 31 -3 9 -9 16 -13 17 -3 0 -13 2 -21 5 -66 17 -71 17 -103 -13
-18 -16 -47 -36 -65 -43 -19 -7 -41 -24 -50 -37 -8 -14 -26 -29 -39 -34 -13
-5 -23 -17 -23 -28 0 -19 -43 -41 -82 -41 -37 0 -78 -30 -84 -60 -4 -16 -15
-37 -25 -46 -11 -9 -19 -23 -19 -30 0 -8 -10 -14 -22 -13 -13 0 -45 -5 -73
-11 -78 -18 -80 -18 -80 11 1 20 -3 25 -15 20 -22 -9 -150 -148 -150 -163 0
-7 -15 -28 -34 -48 -28 -29 -36 -47 -45 -105 -13 -81 -16 -185 -6 -233 5 -23
1 -53 -15 -99 -19 -55 -21 -79 -16 -137 6 -61 3 -77 -15 -111 -19 -35 -22 -59
-24 -179 -2 -104 -6 -141 -16 -147 -11 -7 -11 -9 2 -9 9 0 22 7 29 15 16 20
26 12 34 -26 7 -38 42 -89 61 -89 23 0 29 -21 33 -105 4 -111 3 -128 -6 -137
-13 -13 -38 0 -50 25 -79 162 -93 215 -41 154 19 -21 20 -21 17 -2 -2 11 -15
26 -30 32 -14 7 -29 24 -32 38 -4 15 -16 27 -31 31 -50 13 -63 -26 -14 -46 26
-11 30 -17 27 -44 -2 -26 1 -32 19 -34 62 -9 -17 -52 -95 -52 -36 0 -54 5 -67
20 -19 21 -69 27 -95 10 -13 -8 -13 -13 3 -39 22 -38 22 -41 -9 -41 -25 0 -26
2 -21 37 5 27 2 42 -10 55 -15 17 -15 19 1 37 14 16 15 23 6 41 -9 17 -14 19
-25 10 -8 -7 -19 -9 -25 -5 -7 4 -10 -64 -10 -216 l0 -221 28 5 c54 10 135 36
141 45 3 5 24 12 46 14 22 3 75 13 117 22 82 18 149 18 155 0 2 -7 -18 -13
-53 -17 -74 -8 -83 -18 -44 -51 54 -45 47 -49 -198 -96 -57 -11 -110 -24 -119
-28 -26 -15 5 -26 77 -28 94 -2 90 1 78 -38 -9 -27 -15 -32 -31 -28 -18 5 -20
2 -13 -34 17 -91 18 -121 6 -129 -8 -5 -20 2 -32 18 -27 37 -55 35 -63 -3 -8
-35 -17 -37 -61 -10 l-33 21 -1 -241 0 -240 1500 0 1500 0 0 814 c0 793 -1
815 -19 821 -11 3 -22 12 -25 20 -8 21 -79 19 -124 -4 -64 -32 -223 -49 -243
-25 -6 8 -31 15 -58 15 -116 3 -124 15 -95 133 13 48 18 105 17 177 0 103 -1
106 -40 175 -21 38 -42 77 -46 87 -3 9 -15 17 -25 17 -30 0 -64 84 -60 150 l3
55 47 -3 c51 -4 51 -3 27 55 -8 19 -21 33 -34 35 -13 2 -20 11 -21 25 -2 31
-22 53 -50 53 -17 0 -24 6 -24 18 0 10 -10 28 -22 40 -30 27 -48 49 -48 58 0
16 -52 74 -66 74 -17 0 -59 25 -89 52 -59 53 -151 118 -167 118 -14 0 -18 -8
-18 -40 l0 -40 -47 0 c-27 1 -66 4 -88 9 -50 9 -65 5 -65 -19 0 -22 18 -30 53
-23 16 3 32 -1 42 -10 14 -15 12 -17 -26 -27 -32 -9 -53 -9 -85 0 -30 9 -47 9
-62 1 -29 -16 -42 -14 -42 7 0 9 14 26 30 37 36 24 39 45 6 45 -35 0 -42 18
-9 26 17 5 28 3 31 -4 4 -14 42 -16 42 -3 0 5 3 16 6 25 4 11 1 16 -10 16 -9
0 -25 9 -36 20 -13 13 -33 20 -60 20 -35 0 -40 -3 -46 -27z m-34 -183 c0 -19
-37 -52 -45 -41 -3 6 1 14 9 17 9 3 16 12 16 20 0 8 5 14 10 14 6 0 10 -5 10
-10z m-80 -80 c-12 -16 -24 -30 -28 -31 -4 0 -22 -2 -39 -5 -40 -5 -42 7 -5
32 36 25 53 32 75 33 17 1 17 -1 -3 -29z m295 10 c-3 -5 -15 -10 -26 -10 -10
0 -19 5 -19 10 0 6 12 10 26 10 14 0 23 -4 19 -10z m115 -50 c0 -12 -28 -25
-36 -17 -9 9 6 27 22 27 8 0 14 -5 14 -10z m-388 -67 c40 -46 44 -97 8 -106
-10 -3 -21 -18 -25 -38 -4 -18 -13 -41 -19 -51 -8 -14 -7 -21 6 -34 16 -16 15
-20 -9 -61 -21 -37 -24 -48 -15 -68 10 -22 8 -26 -24 -46 -31 -19 -39 -20 -60
-9 -13 8 -24 19 -24 27 0 18 -19 17 -26 -2 -4 -8 -16 -14 -28 -14 -14 1 -16 3
-5 6 18 4 43 73 27 73 -19 0 -68 -41 -68 -57 0 -44 -50 -64 -106 -43 -18 7
-30 7 -39 0 -6 -5 -14 -7 -17 -4 -3 3 -9 -8 -13 -23 -3 -15 -6 -28 -4 -28 1 0
-3 -9 -9 -21 -10 -18 -8 -23 14 -33 33 -14 34 -14 34 7 0 23 52 45 89 37 23
-5 34 -1 50 16 24 26 26 40 9 57 -9 9 -9 12 0 12 7 0 12 -4 12 -10 0 -5 10 -9
23 -7 16 1 21 -3 19 -16 -3 -19 33 -37 76 -37 42 0 119 -41 125 -67 2 -12 -1
-24 -7 -27 -7 -3 -4 -9 7 -16 9 -6 17 -19 17 -28 0 -29 29 -62 55 -62 28 0 38
-12 29 -34 -8 -20 -48 -21 -64 -1 -7 8 -19 15 -26 15 -8 0 -14 5 -14 10 0 6
-5 10 -11 10 -8 0 -8 -4 0 -14 15 -17 8 -22 -48 -31 -44 -7 -67 -24 -106 -78
-27 -37 -41 -40 -195 -43 -174 -2 -214 -14 -282 -82 -48 -48 -53 -57 -54 -100
0 -26 3 -58 8 -71 9 -26 38 -52 50 -45 13 8 58 -16 58 -30 0 -16 87 -108 105
-113 6 -1 24 -6 41 -10 38 -10 114 -72 114 -93 0 -9 -16 -22 -37 -29 -21 -8
-45 -22 -54 -32 -9 -11 -22 -19 -28 -19 -6 0 -14 -7 -17 -15 -4 -8 -14 -15
-24 -15 -29 0 -80 -21 -74 -31 9 -15 -24 -22 -55 -11 -22 8 -31 7 -35 -1 -3
-8 -9 -6 -16 6 -11 18 -13 17 -30 -10 -16 -28 -19 -70 -6 -91 3 -5 -3 -18 -14
-30 -16 -17 -17 -21 -5 -26 20 -7 19 -22 -2 -30 -10 -3 -24 -9 -30 -12 -10 -4
-12 23 -10 121 2 92 -1 132 -10 146 -8 10 -21 58 -30 106 -8 48 -20 94 -26
101 -13 16 -25 198 -16 237 4 17 15 58 23 92 9 35 16 74 16 88 0 23 36 166 42
169 45 27 57 40 66 77 7 26 7 50 1 66 -11 31 -11 84 0 102 6 9 5 24 0 39 -23
61 41 153 117 165 18 3 54 20 80 37 l46 32 26 -25 c15 -14 38 -27 52 -29 17
-2 25 -9 25 -22 0 -11 6 -21 13 -23 8 -3 12 6 12 26 l0 31 73 1 c39 0 80 2 89
4 16 3 67 53 68 66 0 3 9 16 20 29 12 14 20 37 20 60 0 53 22 67 52 33z m918
-87 c0 -16 -18 -31 -27 -22 -8 8 5 36 17 36 5 0 10 -6 10 -14z m-1660 -16 c0
-5 -4 -10 -10 -10 -5 0 -10 5 -10 10 0 6 5 10 10 10 6 0 10 -4 10 -10z m1611
-269 c18 -14 29 -34 33 -63 4 -24 11 -65 16 -93 15 -85 11 -148 -9 -189 -13
-25 -18 -51 -15 -79 17 -177 23 -270 18 -278 -3 -6 -24 11 -47 37 -47 53 -104
83 -160 84 -56 0 -100 23 -138 70 -33 41 -81 75 -92 64 -3 -3 -13 8 -22 26 -9
18 -23 30 -33 29 -43 -4 -69 3 -94 25 -16 13 -28 29 -28 36 0 27 24 79 39 86
9 4 57 8 108 10 86 4 93 2 121 -21 25 -20 31 -22 36 -10 3 8 17 15 32 15 33 0
57 29 111 140 37 73 41 87 28 96 -13 10 -13 15 -1 39 8 16 13 32 10 37 -3 4 1
18 7 30 12 22 13 22 33 -24 12 -25 33 -56 47 -67z m-1686 69 c3 -5 1 -10 -4
-10 -6 0 -11 5 -11 10 0 6 2 10 4 10 3 0 8 -4 11 -10z m572 -82 c-3 -8 -6 -5
-6 6 -1 11 2 17 5 13 3 -3 4 -12 1 -19z m1313 -674 c0 -8 -7 -14 -15 -14 -15
0 -21 21 -9 33 10 9 24 -2 24 -19z m-2000 -75 c-21 -38 -45 -9 -33 39 l6 25
18 -22 c14 -17 16 -27 9 -42z m1134 4 c14 -13 27 -26 27 -30 8 -43 7 -66 -2
-114 -13 -64 -1 -118 33 -155 17 -19 17 -22 4 -27 -21 -8 -20 -31 2 -79 15
-34 20 -37 52 -35 31 2 35 -1 38 -24 5 -43 -25 -60 -109 -60 -103 -1 -351 10
-366 15 -14 6 -16 73 -4 116 6 19 13 24 33 22 34 -3 50 19 54 75 2 29 9 52 19
59 8 6 14 18 12 25 -2 8 -2 11 0 7 14 -24 30 0 41 59 14 76 47 148 75 168 23
16 57 7 91 -22z m864 -53 c25 -24 55 -26 72 -5 24 29 58 18 80 -25 31 -61 28
-74 -17 -65 -21 4 -73 9 -116 12 l-78 5 6 31 c15 76 19 79 53 47z m-160 -173
c3 -22 -1 -27 -17 -27 -21 0 -26 15 -15 45 9 23 29 13 32 -18z m-982 -61 c10
-8 15 -18 11 -22 -4 -5 -12 -3 -16 4 -4 7 -14 12 -21 10 -7 -2 -15 3 -17 10
-6 16 19 15 43 -2z m841 -108 c-3 -8 -6 -5 -6 6 -1 11 2 17 5 13 3 -3 4 -12 1
-19z m156 -296 c23 -15 76 -36 117 -46 41 -10 93 -26 115 -36 63 -27 138 -50
161 -50 12 0 35 -7 50 -15 16 -8 39 -15 50 -15 12 0 27 -7 34 -15 10 -13 9
-15 -11 -15 -13 0 -37 7 -53 15 -15 8 -51 15 -80 15 -29 0 -59 7 -70 15 -11 8
-31 15 -44 15 -13 0 -38 6 -55 14 -18 8 -59 19 -92 25 -99 17 -169 33 -182 44
-7 5 -13 25 -13 43 0 43 17 44 73 6z m-1643 -22 c0 -11 -2 -20 -4 -20 -2 0 -6
9 -9 20 -3 11 -1 20 4 20 5 0 9 -9 9 -20z m1675 -130 c-3 -5 -12 -10 -20 -10
-7 0 -16 -8 -19 -17 -6 -15 -8 -15 -16 -3 -7 11 -5 19 7 28 20 14 57 16 48 2z
m-2040 -56 c11 -12 13 -20 6 -27 -8 -8 -15 -5 -26 9 -26 35 -11 49 20 18z
m2327 -20 c18 -9 42 -12 67 -8 26 4 48 1 68 -9 15 -9 36 -18 46 -21 21 -6 23
-36 2 -36 -23 0 -65 22 -59 31 7 13 -28 -2 -49 -19 -14 -12 -22 -13 -42 -4
-14 6 -25 16 -25 21 0 5 -22 12 -49 16 -36 5 -50 12 -54 25 -3 10 -2 22 1 25
8 8 60 -4 94 -21z m258 16 c0 -5 -4 -10 -9 -10 -6 0 -13 5 -16 10 -3 6 1 10 9
10 9 0 16 -4 16 -10z m-470 -34 c0 -3 -4 -8 -10 -11 -5 -3 -10 -1 -10 4 0 6 5
11 10 11 6 0 10 -2 10 -4z m157 -22 c-3 -3 -12 -4 -19 -1 -8 3 -5 6 6 6 11 1
17 -2 13 -5z m393 -4 c0 -5 -2 -10 -4 -10 -3 0 -8 5 -11 10 -3 6 -1 10 4 10 6
0 11 -4 11 -10z m-48 -36 c12 -12 -5 -44 -24 -44 -10 0 -17 4 -13 9 3 5 1 12
-5 16 -18 11 -11 25 13 25 13 0 26 -3 29 -6z"/>
<path d="M1122 2299 c2 -7 10 -15 17 -17 8 -3 12 1 9 9 -2 7 -10 15 -17 17 -8
3 -12 -1 -9 -9z"/>
<path d="M1638 2993 c6 -2 18 -2 25 0 6 3 1 5 -13 5 -14 0 -19 -2 -12 -5z"/>
<path d="M1695 2990 c3 -5 13 -10 21 -10 8 0 14 5 14 10 0 6 -9 10 -21 10 -11
0 -17 -4 -14 -10z"/>
<path d="M2057 2943 c-13 -12 -7 -21 23 -32 28 -9 30 -8 30 15 0 18 -5 24 -23
24 -13 0 -27 -3 -30 -7z"/>
<path d="M2878 2822 c-3 -10 -2 -25 1 -35 7 -18 8 -18 29 0 l21 18 -23 17
c-23 16 -24 16 -28 0z"/>
<path d="M2960 2785 c0 -14 5 -25 10 -25 6 0 10 -9 10 -19 0 -11 -4 -23 -10
-26 -19 -12 -11 -45 10 -45 18 0 20 7 20 70 0 63 -2 70 -20 70 -15 0 -20 -7
-20 -25z"/>
<path d="M2704 2775 c-13 -33 32 -49 57 -19 10 13 10 17 -2 25 -21 13 -49 11
-55 -6z"/>
<path d="M2517 2606 c-7 -16 1 -26 20 -26 7 0 13 9 13 20 0 23 -25 27 -33 6z"/>
<path d="M2720 2590 c0 -5 7 -10 15 -10 8 0 15 5 15 10 0 6 -7 10 -15 10 -8 0
-15 -4 -15 -10z"/>
<path d="M2755 2493 c-31 -27 -32 -29 -34 -75 0 -16 -7 -28 -13 -28 -21 0 -38
-46 -24 -65 16 -22 49 -9 41 16 -4 11 -2 19 4 19 6 0 11 7 11 15 0 8 7 15 15
15 8 0 15 -8 15 -19 0 -20 23 -45 33 -35 14 14 47 -8 47 -33 0 -22 -4 -25 -25
-21 -14 3 -25 2 -25 -3 0 -4 -2 -13 -5 -21 -3 -8 8 -21 26 -32 18 -11 27 -21
21 -25 -6 -4 -7 -12 -3 -20 16 -26 48 5 61 59 12 48 25 68 37 56 3 -3 -1 -16
-10 -30 -16 -25 -13 -36 10 -36 7 0 13 8 13 19 0 14 6 17 25 13 21 -4 25 -1
25 19 0 13 -9 30 -20 37 -25 16 -28 77 -3 90 14 8 13 12 -10 27 -41 26 -61 17
-68 -33 -7 -56 -25 -74 -38 -40 -11 30 -34 41 -50 25 -8 -8 -11 -7 -11 6 0 9
5 17 10 17 6 0 10 6 10 14 0 8 7 16 15 20 22 8 18 29 -8 54 -29 28 -35 27 -72
-5z"/>
<path d="M2483 2373 c-33 -17 -40 -36 -24 -62 7 -11 12 -8 26 13 17 26 39 28
29 2 -7 -17 22 -41 31 -26 4 6 2 17 -5 24 -6 8 -8 26 -4 40 7 31 -5 33 -53 9z"/>
<path d="M2593 2342 c-10 -7 -10 -12 1 -28 16 -21 20 -19 30 14 8 23 -7 29
-31 14z"/>
<path d="M2670 2235 c-10 -13 -9 -15 9 -15 12 0 21 6 21 15 0 8 -4 15 -9 15
-5 0 -14 -7 -21 -15z"/>
<path d="M2965 2200 c-3 -5 -4 -10 -1 -10 2 0 11 -3 20 -6 11 -4 16 -1 16 10
0 18 -25 22 -35 6z"/>
<path d="M2745 2165 c-3 -8 -7 -22 -10 -30 -2 -8 -10 -14 -17 -13 -7 2 -14 -7
-16 -19 -4 -24 7 -30 24 -14 5 5 32 11 59 13 46 3 50 1 53 -20 3 -16 8 -22 19
-18 8 3 17 6 19 6 2 0 4 5 4 11 0 7 8 18 18 25 15 12 12 13 -28 14 -40 0 -47
3 -58 30 -10 22 -21 30 -38 30 -14 0 -27 -7 -29 -15z"/>
<path d="M2925 2130 c-3 -5 3 -10 14 -10 12 0 21 5 21 10 0 6 -6 10 -14 10 -8
0 -18 -4 -21 -10z"/>
<path d="M2978 2053 c-10 -2 -18 -8 -18 -13 0 -12 33 -5 38 8 2 7 2 11 0 11
-1 -1 -11 -3 -20 -6z"/>
<path d="M2896 2020 c-20 -20 -16 -50 7 -50 7 0 21 16 30 35 16 33 16 35 -1
34 -9 0 -25 -9 -36 -19z"/>
<path d="M2960 1891 c0 -5 9 -11 20 -14 13 -3 20 0 20 9 0 8 -9 14 -20 14 -11
0 -20 -4 -20 -9z"/>
<path d="M2862 1874 c-14 -16 -8 -34 12 -34 8 0 19 7 27 16 10 13 10 17 -2 25
-18 11 -22 11 -37 -7z"/>
<path d="M2907 1793 c-4 -3 -7 -10 -7 -15 0 -10 67 -38 89 -37 9 1 5 4 -9 9
-24 8 -24 8 -2 9 33 1 27 28 -9 35 -40 8 -54 8 -62 -1z"/>
<path d="M2813 1765 c-6 -7 -13 -21 -15 -31 -3 -15 6 -18 56 -21 l60 -4 -25
24 c-37 37 -62 47 -76 32z"/>
<path d="M2727 1713 c-13 -12 -7 -21 17 -25 29 -6 51 5 42 21 -8 12 -49 15
-59 4z"/>
<path d="M2600 1670 c0 -5 5 -10 10 -10 6 0 10 5 10 10 0 6 -4 10 -10 10 -5 0
-10 -4 -10 -10z"/>
<path d="M0 684 c0 -17 22 -14 28 4 2 7 -3 12 -12 12 -9 0 -16 -7 -16 -16z"/>
</g>
</svg>
